<svg width="342" height="298" viewBox="0 0 342 298" fill="none" xmlns="http://www.w3.org/2000/svg">
<path d="M331.714 297.821C331.714 297.924 260.721 298 173.177 298C85.632 298 14.6246 297.924 14.6246 297.821C14.6246 297.717 85.5946 297.641 173.177 297.641C260.759 297.641 331.714 297.724 331.714 297.821Z" fill="#263238"/>
<path d="M297.187 297.317L190.882 297.262C184.741 297.258 178.854 295.008 174.513 291.006C170.172 287.004 167.734 281.578 167.734 275.921L167.786 30.3635C167.8 24.7008 170.252 19.2745 174.602 15.2748C178.953 11.2752 184.848 9.02904 190.994 9.02905L297.299 9.09113C303.44 9.09479 309.327 11.3449 313.668 15.3468C318.008 19.3486 320.447 24.7748 320.447 30.4325L320.394 275.99C320.394 278.795 319.794 281.573 318.627 284.164C317.46 286.755 315.749 289.109 313.593 291.09C311.438 293.071 308.879 294.641 306.063 295.71C303.248 296.778 300.232 297.324 297.187 297.317Z" fill="#455A64"/>
<path d="M297.15 17.7477H276.54C275.181 17.7767 273.891 18.3015 272.952 19.2068C272.012 20.1122 271.502 21.324 271.532 22.5761V26.0249C271.562 27.277 271.051 28.4888 270.112 29.3942C269.173 30.2995 267.882 30.8243 266.524 30.8533H226.345C224.987 30.8225 223.698 30.2969 222.761 29.3918C221.823 28.4866 221.314 27.2758 221.344 26.0249V22.5761C221.374 21.324 220.863 20.1122 219.924 19.2068C218.985 18.3015 217.694 17.7767 216.336 17.7477H191.047C186.754 17.744 182.635 19.3089 179.592 22.0992C176.55 24.8896 174.832 28.6776 174.817 32.6329L174.764 272.341C174.772 276.299 176.484 280.093 179.524 282.89C182.564 285.687 186.683 287.259 190.98 287.26L297.083 287.316C299.213 287.316 301.323 286.931 303.291 286.18C305.26 285.43 307.049 284.33 308.556 282.942C310.063 281.555 311.259 279.908 312.075 278.095C312.891 276.282 313.312 274.338 313.313 272.375L313.358 32.6674C313.352 28.7097 311.642 24.9159 308.603 22.1188C305.564 19.3216 301.445 17.7495 297.15 17.7477Z" fill="white"/>
<path d="M313.35 68.1283V32.4191C313.273 28.5058 311.533 24.7765 308.504 22.0329C305.474 19.2894 301.397 17.7507 297.15 17.7477H276.54C275.867 17.7611 275.203 17.8968 274.587 18.1468C273.971 18.3968 273.414 18.7564 272.949 19.2049C272.484 19.6533 272.119 20.1819 271.876 20.7604C271.633 21.3389 271.516 21.9559 271.532 22.5761V26.0249C271.562 27.277 271.051 28.4888 270.112 29.3942C269.173 30.2995 267.882 30.8243 266.523 30.8533H226.344C224.987 30.8225 223.698 30.2969 222.76 29.3918C221.823 28.4866 221.313 27.2758 221.344 26.0249V22.5761C221.374 21.324 220.863 20.1122 219.924 19.2068C218.985 18.3015 217.694 17.7767 216.335 17.7477H191.047C186.754 17.744 182.635 19.3089 179.592 22.0992C176.55 24.8896 174.832 28.6776 174.816 32.6329V68.2387H313.35V68.1283Z" fill="#EBEBEB"/>
<path d="M203.07 116.564C212.343 116.564 219.861 109.652 219.861 101.127C219.861 92.6011 212.343 85.6897 203.07 85.6897C193.796 85.6897 186.278 92.6011 186.278 101.127C186.278 109.652 193.796 116.564 203.07 116.564Z" fill="#E0E0E0"/>
<path d="M195.224 104.989L199.626 104.645L210.361 106.314L211.626 113.756L211.447 114.625C209.028 115.883 206.311 116.572 203.535 116.631C200.759 116.69 198.01 116.117 195.531 114.963L195.224 104.989Z" fill="#455A64"/>
<path d="M208.063 106.197C209.128 106.053 210.214 106.189 211.199 106.588C212.184 106.986 213.028 107.633 213.633 108.452C214.36 109.388 215.028 110.362 215.632 111.37C213.88 113.122 212.458 114.453 210.032 115.232L208.063 106.197Z" fill="#455A64"/>
<path d="M195.224 104.989C195.224 104.989 192.319 105.321 191.197 107.604C190.074 109.887 189.812 110.597 189.812 110.597C191.309 112.266 193.225 114.239 195.569 114.977C195.569 114.977 196.1 109.225 196.167 107.604C196.25 105.852 196.325 104.941 195.224 104.989Z" fill="#455A64"/>
<path d="M197.874 90.3664C198.606 89.5028 199.539 88.8016 200.604 88.3145C201.669 87.8275 202.839 87.5669 204.028 87.5521C205.05 87.552 206.065 87.7201 207.023 88.0488C208.031 88.2688 208.923 88.8114 209.538 89.58C210.301 90.4837 210.801 91.5522 210.99 92.684C211.166 93.8422 211.226 95.0128 211.17 96.1811C211.109 97.3577 210.697 98.4961 209.98 99.4713L206.753 99.9817C204.974 100.113 203.184 100.024 201.43 99.7196C199.657 99.406 198.091 98.4587 197.073 97.0847C195.778 95.1465 196.317 92.1322 197.874 90.3664Z" fill="#263238"/>
<path d="M194.76 98.9539C194.793 98.6176 194.908 98.2925 195.098 98.0033C195.287 97.7141 195.545 97.4684 195.853 97.2847C196.168 97.1104 196.534 97.0325 196.9 97.0622C197.266 97.092 197.612 97.2278 197.889 97.4503L198.398 98.0021C198.791 98.1693 199.117 98.4452 199.332 98.7913C199.547 99.1375 199.639 99.5367 199.596 99.9334C199.54 100.33 199.36 100.704 199.079 101.009C198.797 101.314 198.425 101.537 198.009 101.651C197.592 101.76 197.153 101.768 196.732 101.675C196.311 101.582 195.923 101.391 195.606 101.12C195.294 100.843 195.056 100.503 194.909 100.128C194.763 99.752 194.712 99.3505 194.76 98.9539Z" fill="#263238"/>
<path d="M195.396 100.982C195.275 100.807 195.215 100.603 195.224 100.396C195.332 99.8935 195.591 99.4296 195.973 99.0574C196.334 98.6665 196.774 98.3433 197.268 98.1056C197.642 97.9193 197.904 97.8503 197.897 97.8297C197.658 97.8458 197.425 97.9093 197.215 98.0159C196.688 98.2321 196.221 98.5579 195.853 98.9678C195.646 99.1756 195.47 99.4075 195.329 99.6575C195.206 99.871 195.135 100.106 195.119 100.347C195.116 100.513 195.165 100.676 195.261 100.816C195.329 100.954 195.396 101.023 195.396 100.982Z" fill="#455A64"/>
<path d="M206.723 105.665V102.906C206.723 102.906 209.351 102.637 210.084 99.5334C210.429 97.4803 210.565 95.4019 210.489 93.3255C210.489 91.4424 208.729 88.8765 206.199 88.8696L205.076 88.7454L200.771 90.3181C200.472 90.3333 200.19 90.4505 199.98 90.6468C199.77 90.8432 199.646 91.1047 199.634 91.3803L199.506 104.631L201.475 107.176C201.836 107.626 202.34 107.96 202.917 108.132C203.494 108.304 204.115 108.305 204.693 108.136C205.271 107.966 205.777 107.634 206.14 107.186C206.502 106.738 206.704 106.197 206.716 105.638L206.723 105.665Z" fill="#FFBE9D"/>
<path d="M205.009 98.816C205.032 98.6564 205.12 98.5109 205.256 98.4091C205.379 98.314 205.532 98.2579 205.692 98.2492C205.853 98.2405 206.012 98.2796 206.147 98.3608C206.284 98.4596 206.391 98.59 206.457 98.7389C206.523 98.8878 206.545 99.0499 206.521 99.2092C206.446 99.3051 206.35 99.3854 206.239 99.4448C206.128 99.5043 206.005 99.5415 205.877 99.5541H205.757C205.658 99.5564 205.559 99.5406 205.467 99.5074C205.374 99.4742 205.29 99.4244 205.218 99.3609C205.143 99.2895 205.085 99.2038 205.049 99.1097C205.012 99.0156 204.999 98.9154 205.009 98.816Z" fill="#EB996E"/>
<path d="M208.924 95.5052C208.92 95.6101 208.871 95.7094 208.789 95.7816C208.706 95.8539 208.596 95.8933 208.482 95.8914C208.426 95.8924 208.37 95.8831 208.318 95.8642C208.266 95.8452 208.218 95.817 208.178 95.7812C208.138 95.7453 208.106 95.7025 208.083 95.6551C208.061 95.6078 208.049 95.5568 208.048 95.5052C208.054 95.3997 208.104 95.3004 208.188 95.2283C208.271 95.1562 208.382 95.117 208.497 95.1189C208.553 95.118 208.608 95.1273 208.66 95.1463C208.712 95.1653 208.759 95.1936 208.798 95.2296C208.838 95.2655 208.87 95.3084 208.891 95.3557C208.913 95.4031 208.924 95.4539 208.924 95.5052Z" fill="#263238"/>
<path d="M209.643 94.5118C209.583 94.5601 209.261 94.3187 208.797 94.298C208.333 94.2773 207.966 94.4773 207.921 94.4222C207.876 94.367 207.958 94.3049 208.116 94.2083C208.328 94.0918 208.573 94.0366 208.819 94.0497C209.063 94.0586 209.297 94.1409 209.486 94.2842C209.62 94.3946 209.665 94.4911 209.643 94.5118Z" fill="#263238"/>
<path d="M206.686 97.7814C206.931 97.7283 207.182 97.7005 207.434 97.6986C207.554 97.6986 207.674 97.6986 207.696 97.602C207.713 97.4886 207.692 97.3732 207.636 97.2709L207.329 96.4156C207.043 95.6858 206.821 94.9362 206.663 94.1739C207.013 94.8804 207.301 95.6116 207.524 96.3604C207.629 96.657 207.719 96.9468 207.816 97.2227C207.879 97.36 207.892 97.5124 207.853 97.6572C207.808 97.7312 207.733 97.7857 207.644 97.809C207.577 97.8153 207.509 97.8153 207.442 97.809C207.189 97.8313 206.935 97.822 206.686 97.7814Z" fill="#263238"/>
<path d="M206.708 102.913C205.101 102.847 203.545 102.369 202.216 101.534C202.216 101.534 203.302 103.762 206.708 103.644V102.913Z" fill="#EB996E"/>
<path d="M205.286 98.0159C205.368 98.0159 205.338 98.4849 205.757 98.8367C206.177 99.1885 206.716 99.1678 206.716 99.2299C206.716 99.292 206.588 99.3196 206.364 99.3127C206.064 99.3002 205.779 99.193 205.555 99.0092C205.344 98.83 205.216 98.5832 205.196 98.3194C205.188 98.1194 205.256 98.009 205.286 98.0159Z" fill="#263238"/>
<path d="M209.545 92.884C209.463 92.9875 209.104 92.884 208.684 92.884C208.265 92.884 207.936 92.9806 207.823 92.884C207.711 92.7874 207.823 92.7322 207.988 92.6357C208.195 92.5161 208.433 92.4516 208.677 92.4494C208.922 92.4435 209.164 92.5034 209.373 92.6219C209.53 92.746 209.583 92.8357 209.545 92.884Z" fill="#263238"/>
<path d="M203.773 95.5051C203.771 95.6108 203.814 95.713 203.892 95.7902C203.97 95.8675 204.078 95.9136 204.193 95.919C204.248 95.9237 204.304 95.9181 204.358 95.9025C204.411 95.887 204.46 95.8617 204.503 95.8283C204.546 95.7949 204.58 95.754 204.606 95.7079C204.631 95.6619 204.646 95.6117 204.649 95.5603C204.649 95.4559 204.606 95.3554 204.528 95.2796C204.45 95.2039 204.343 95.1587 204.23 95.1534C204.175 95.1477 204.119 95.1523 204.066 95.1671C204.012 95.1819 203.963 95.2064 203.92 95.2393C203.877 95.2722 203.842 95.3127 203.817 95.3584C203.792 95.4041 203.777 95.454 203.773 95.5051Z" fill="#263238"/>
<path d="M203.204 94.3601C203.257 94.4153 203.594 94.1946 204.065 94.2015C204.537 94.2084 204.874 94.4291 204.926 94.3808C204.979 94.3325 204.926 94.2636 204.747 94.1601C204.547 94.0252 204.305 93.9527 204.058 93.9532C203.815 93.9462 203.576 94.0115 203.377 94.1394C203.227 94.2429 203.174 94.3325 203.204 94.3601Z" fill="#263238"/>
<path d="M202.935 93.4358C203.025 93.5393 203.392 93.4358 203.826 93.4358C204.26 93.4358 204.627 93.5186 204.717 93.4358C204.807 93.3531 204.717 93.2841 204.537 93.1875C204.319 93.0699 204.071 93.0079 203.818 93.0079C203.566 93.0079 203.318 93.0699 203.1 93.1875C202.943 93.2841 202.89 93.3807 202.935 93.4358Z" fill="#263238"/>
<path d="M200.203 96.6709C200.203 96.4363 199.963 95.8707 199.708 95.8225C199.05 95.6914 197.844 95.6845 197.74 97.2434C197.597 99.3747 199.985 99.0644 199.985 99.0023C199.985 98.9402 200.158 97.471 200.203 96.6709Z" fill="#FFBE9D"/>
<path d="M199.371 98.1883C199.371 98.1883 199.334 98.1883 199.259 98.2366C199.212 98.2552 199.161 98.2648 199.109 98.2648C199.058 98.2648 199.007 98.2552 198.96 98.2366C198.815 98.1407 198.7 98.0108 198.628 97.8605C198.555 97.7101 198.528 97.5447 198.548 97.3813C198.557 97.1987 198.608 97.02 198.698 96.8571C198.724 96.792 198.768 96.7337 198.824 96.687C198.879 96.6402 198.947 96.6063 199.019 96.588C199.067 96.5786 199.117 96.5853 199.159 96.6068C199.202 96.6283 199.235 96.6633 199.252 96.7053C199.257 96.7396 199.257 96.7744 199.252 96.8088C199.252 96.8088 199.304 96.8088 199.289 96.6915C199.28 96.6382 199.25 96.5894 199.207 96.5536C199.178 96.528 199.144 96.5086 199.106 96.4967C199.069 96.4848 199.029 96.4806 198.99 96.4846C198.894 96.4959 198.803 96.5298 198.725 96.583C198.648 96.6361 198.587 96.7068 198.548 96.7881C198.437 96.9671 198.375 97.1684 198.368 97.3744C198.343 97.564 198.379 97.7564 198.472 97.927C198.566 98.0977 198.712 98.239 198.892 98.3332C198.954 98.3522 199.019 98.359 199.083 98.3531C199.148 98.3471 199.21 98.3286 199.266 98.2987C199.371 98.2642 199.371 98.1952 199.371 98.1883Z" fill="#EB996E"/>
<path d="M199.618 95.8293L200.202 96.388C202.748 94.1532 207.726 88.5454 207.449 88.8765C206.287 88.4815 205.037 88.3582 203.811 88.5178C201.917 88.8144 198.331 89.6835 198.383 91.7321C198.495 93.16 198.914 94.553 199.618 95.8293Z" fill="#263238"/>
<path d="M196.25 95.3603C196.25 95.3603 196.25 95.312 196.25 95.2361C196.294 95.1203 196.346 95.0074 196.407 94.8981C196.647 94.5027 196.98 94.1612 197.38 93.898C197.973 93.5083 198.634 93.2144 199.334 93.0289C200.083 92.8012 200.981 92.6219 201.842 92.2839C203.315 91.7107 204.645 90.8656 205.75 89.8007C206.082 89.477 206.395 89.1362 206.686 88.7799L206.918 88.4833C206.943 88.4476 206.973 88.4152 207.007 88.3867L206.94 88.4971C206.888 88.5661 206.82 88.6764 206.723 88.8075C206.444 89.175 206.139 89.5253 205.81 89.8559C205.318 90.3437 204.776 90.7871 204.193 91.1803C203.479 91.6637 202.705 92.0666 201.887 92.3805C201.062 92.6719 200.219 92.9206 199.364 93.1254C198.674 93.3027 198.022 93.5848 197.433 93.96C197.036 94.2119 196.701 94.5388 196.452 94.9188C196.373 95.0612 196.305 95.2087 196.25 95.3603Z" fill="#455A64"/>
<path d="M196.923 95.6914C196.918 95.5332 196.948 95.3758 197.013 95.2293C197.186 94.8207 197.489 94.4698 197.882 94.2222C198.471 93.8753 199.131 93.6408 199.821 93.5324C200.647 93.3871 201.454 93.1557 202.224 92.8427C202.989 92.5219 203.709 92.114 204.365 91.6287C204.909 91.2301 205.41 90.7843 205.862 90.2974C206.159 89.9701 206.432 89.6245 206.678 89.2628C206.76 89.1455 206.828 89.042 206.873 88.9662C206.896 88.929 206.923 88.8943 206.955 88.8627C206.939 88.9012 206.919 88.9382 206.895 88.9731L206.715 89.2835C206.486 89.6585 206.22 90.014 205.922 90.3457C205.479 90.855 204.977 91.3176 204.425 91.7252C203.762 92.2207 203.036 92.6378 202.261 92.9668C201.482 93.2826 200.665 93.514 199.828 93.6566C199.15 93.7736 198.502 94.0077 197.919 94.3464C197.531 94.5794 197.226 94.913 197.043 95.3051C196.991 95.4304 196.951 95.5597 196.923 95.6914Z" fill="#455A64"/>
<path d="M195.572 114.963C195.458 113.604 195.458 112.239 195.572 110.88C195.676 112.24 195.676 113.604 195.572 114.963Z" fill="#263238"/>
<path d="M211.454 114.674C211.435 114.444 211.435 114.214 211.454 113.984C211.499 113.409 211.477 112.83 211.387 112.26C211.27 111.69 211.09 111.133 210.848 110.597C210.735 110.376 210.644 110.145 210.578 109.907C210.725 110.109 210.848 110.324 210.945 110.549C211.223 111.081 211.421 111.645 211.537 112.225C211.626 112.809 211.626 113.401 211.537 113.984C211.541 114.216 211.513 114.448 211.454 114.674Z" fill="#263238"/>
<path d="M292.261 120.73H235.029C233.665 120.728 232.358 120.228 231.394 119.34C230.43 118.452 229.888 117.247 229.886 115.991V93.8497L223.575 88.6902H292.261C292.941 88.6857 293.614 88.8051 294.243 89.0416C294.872 89.2782 295.443 89.6271 295.925 90.0683C296.407 90.5095 296.789 91.0343 297.049 91.6123C297.309 92.1903 297.443 92.81 297.442 93.4358V115.991C297.441 116.616 297.306 117.235 297.045 117.812C296.784 118.388 296.401 118.912 295.92 119.352C295.439 119.792 294.868 120.141 294.24 120.377C293.612 120.614 292.94 120.734 292.261 120.73Z" fill="#EBEBEB"/>
<path d="M288.338 124.317C286.308 124.494 284.268 124.554 282.229 124.496C280.194 124.554 278.156 124.494 276.128 124.317C278.156 124.139 280.194 124.079 282.229 124.137C284.268 124.079 286.308 124.139 288.338 124.317Z" fill="#E0E0E0"/>
<path d="M290.861 124.758C290.836 124.758 290.811 124.753 290.788 124.743C290.765 124.734 290.744 124.72 290.727 124.703L289.544 123.565C289.509 123.533 289.49 123.489 289.49 123.444C289.49 123.399 289.509 123.356 289.544 123.323C289.56 123.307 289.581 123.294 289.603 123.285C289.626 123.276 289.65 123.271 289.675 123.271C289.699 123.271 289.724 123.276 289.746 123.285C289.769 123.294 289.789 123.307 289.806 123.323L290.854 124.331L293.152 122.178C293.169 122.162 293.189 122.149 293.212 122.14C293.234 122.131 293.259 122.126 293.283 122.126C293.308 122.126 293.332 122.131 293.354 122.14C293.377 122.149 293.397 122.162 293.414 122.178C293.448 122.211 293.468 122.254 293.468 122.299C293.468 122.344 293.448 122.388 293.414 122.42L290.981 124.703C290.948 124.733 290.906 124.752 290.861 124.758Z" fill="#FF725E"/>
<path d="M292.546 124.724H292.329C292.279 124.724 292.231 124.706 292.196 124.673C292.161 124.641 292.141 124.597 292.141 124.551C292.147 124.506 292.169 124.464 292.205 124.432C292.24 124.401 292.287 124.382 292.336 124.379H292.471L294.844 122.151C294.861 122.134 294.882 122.121 294.906 122.112C294.929 122.103 294.954 122.098 294.979 122.098C295.004 122.098 295.029 122.103 295.052 122.112C295.075 122.121 295.096 122.134 295.113 122.151C295.148 122.183 295.167 122.226 295.167 122.272C295.167 122.317 295.148 122.36 295.113 122.392L292.68 124.669C292.664 124.686 292.643 124.701 292.62 124.71C292.596 124.72 292.571 124.724 292.546 124.724Z" fill="#FF725E"/>
<path d="M288.338 211C286.308 211.177 284.268 211.237 282.229 211.179C280.194 211.237 278.156 211.177 276.128 211C278.156 210.822 280.194 210.762 282.229 210.82C284.268 210.762 286.308 210.822 288.338 211Z" fill="#E0E0E0"/>
<path d="M290.861 211.441C290.832 211.444 290.803 211.44 290.776 211.431C290.748 211.421 290.724 211.406 290.704 211.386L289.521 210.248C289.5 210.232 289.483 210.213 289.471 210.191C289.459 210.169 289.452 210.145 289.451 210.12C289.45 210.096 289.455 210.071 289.465 210.048C289.475 210.025 289.49 210.005 289.51 209.988C289.529 209.971 289.552 209.958 289.578 209.95C289.603 209.942 289.63 209.939 289.657 209.942C289.683 209.944 289.709 209.952 289.732 209.964C289.755 209.976 289.775 209.993 289.791 210.013L290.839 211.02L293.137 208.868C293.154 208.852 293.174 208.839 293.197 208.83C293.219 208.821 293.244 208.816 293.268 208.816C293.293 208.816 293.317 208.821 293.34 208.83C293.362 208.839 293.382 208.852 293.399 208.868C293.433 208.901 293.453 208.944 293.453 208.989C293.453 209.034 293.433 209.077 293.399 209.11L290.996 211.386C290.96 211.418 290.912 211.438 290.861 211.441Z" fill="#FF725E"/>
<path d="M292.546 211.386H292.329C292.278 211.384 292.231 211.365 292.196 211.331C292.161 211.298 292.141 211.253 292.141 211.207C292.141 211.184 292.146 211.161 292.156 211.14C292.166 211.119 292.181 211.1 292.199 211.084C292.218 211.069 292.239 211.057 292.263 211.05C292.286 211.042 292.311 211.039 292.336 211.041H292.471L294.844 208.813C294.861 208.796 294.882 208.783 294.906 208.774C294.929 208.765 294.954 208.76 294.979 208.76C295.004 208.76 295.029 208.765 295.052 208.774C295.075 208.783 295.096 208.796 295.113 208.813C295.148 208.845 295.167 208.889 295.167 208.934C295.167 208.979 295.148 209.022 295.113 209.055L292.68 211.331C292.664 211.349 292.643 211.363 292.62 211.372C292.596 211.382 292.571 211.387 292.546 211.386Z" fill="#FF725E"/>
<path d="M291.527 95.0292C291.527 95.1258 279.033 95.2085 263.619 95.2085C248.204 95.2085 235.717 95.1258 235.717 95.0292C235.717 94.9326 248.204 94.8499 263.619 94.8499C279.033 94.8499 291.527 94.9257 291.527 95.0292Z" fill="white"/>
<path d="M291.527 98.8023C291.527 98.9057 279.033 98.9816 263.619 98.9816C248.204 98.9816 235.717 98.9057 235.717 98.8023C235.717 98.6988 248.204 98.6229 263.619 98.6229C279.033 98.6229 291.527 98.7057 291.527 98.8023Z" fill="white"/>
<path d="M291.527 102.582C291.527 102.679 279.033 102.761 263.619 102.761C248.204 102.761 235.717 102.679 235.717 102.582C235.717 102.486 248.204 102.403 263.619 102.403C279.033 102.403 291.527 102.486 291.527 102.582Z" fill="white"/>
<path d="M203.07 212.834C212.343 212.834 219.861 205.923 219.861 197.397C219.861 188.872 212.343 181.961 203.07 181.961C193.796 181.961 186.278 188.872 186.278 197.397C186.278 205.923 193.796 212.834 203.07 212.834Z" fill="#E0E0E0"/>
<path d="M195.224 201.26L199.626 200.915L210.361 202.585L211.626 210.006L211.447 210.869C209.029 212.128 206.311 212.818 203.535 212.877C200.758 212.936 198.009 212.362 195.531 211.207L195.224 201.24" fill="#455A64"/>
<path d="M208.063 202.46C209.127 202.319 210.214 202.455 211.198 202.854C212.183 203.252 213.026 203.898 213.633 204.716C214.362 205.653 215.029 206.63 215.632 207.641C213.88 209.393 212.458 210.724 210.032 211.496L208.063 202.46Z" fill="#455A64"/>
<path d="M195.224 201.26C195.224 201.26 192.319 201.584 191.197 203.868C190.074 206.151 189.812 206.868 189.812 206.868C191.309 208.53 193.225 210.503 195.569 211.241C195.569 211.241 196.1 205.495 196.167 203.868C196.25 202.088 196.325 201.205 195.224 201.26Z" fill="#455A64"/>
<path d="M197.874 186.637C198.605 185.772 199.538 185.071 200.603 184.583C201.668 184.096 202.839 183.836 204.028 183.823C205.05 183.817 206.065 183.983 207.023 184.313C208.029 184.538 208.919 185.079 209.538 185.844C210.3 186.748 210.8 187.817 210.99 188.948C211.166 190.108 211.226 191.281 211.17 192.452C211.11 193.627 210.698 194.763 209.98 195.735L206.753 196.253C204.974 196.38 203.185 196.292 201.43 195.99C199.657 195.677 198.091 194.73 197.073 193.355C195.778 191.383 196.317 188.396 197.874 186.637Z" fill="#263238"/>
<path d="M194.76 195.252C194.792 194.916 194.907 194.59 195.096 194.301C195.286 194.012 195.544 193.766 195.853 193.583C196.166 193.407 196.533 193.327 196.899 193.356C197.265 193.384 197.612 193.519 197.889 193.742L198.398 194.3C198.792 194.467 199.119 194.743 199.334 195.089C199.548 195.435 199.64 195.835 199.596 196.232C199.535 196.627 199.353 196.998 199.072 197.302C198.791 197.606 198.423 197.831 198.009 197.949C197.592 198.057 197.152 198.063 196.731 197.969C196.31 197.875 195.923 197.683 195.606 197.411C195.294 197.135 195.056 196.797 194.909 196.423C194.763 196.048 194.712 195.648 194.76 195.252Z" fill="#263238"/>
<path d="M195.396 197.253C195.276 197.075 195.216 196.869 195.224 196.659C195.332 196.159 195.592 195.698 195.973 195.328C196.332 194.935 196.772 194.612 197.268 194.376C197.642 194.19 197.904 194.121 197.897 194.094C197.658 194.114 197.427 194.177 197.215 194.28C196.69 194.5 196.225 194.825 195.853 195.232C195.645 195.454 195.469 195.7 195.329 195.963C195.205 196.176 195.134 196.411 195.119 196.653C195.117 196.818 195.166 196.981 195.261 197.122C195.329 197.225 195.396 197.26 195.396 197.253Z" fill="#455A64"/>
<path d="M206.738 202.185V199.425C206.738 199.425 209.366 199.156 210.099 196.059C210.444 194.006 210.579 191.928 210.503 189.851C210.503 187.968 208.744 185.402 206.214 185.396L205.091 185.278L200.786 186.851C200.487 186.865 200.204 186.981 199.993 187.178C199.782 187.375 199.659 187.637 199.648 187.913L199.521 201.157L201.49 203.702C201.85 204.152 202.355 204.486 202.932 204.658C203.509 204.83 204.13 204.831 204.708 204.662C205.286 204.492 205.792 204.16 206.154 203.712C206.517 203.264 206.719 202.723 206.73 202.164L206.738 202.185Z" fill="#FFBE9D"/>
<path d="M205.009 195.087C205.032 194.927 205.12 194.782 205.256 194.68C205.379 194.585 205.532 194.529 205.692 194.52C205.853 194.511 206.012 194.55 206.146 194.632C206.284 194.73 206.391 194.861 206.457 195.01C206.522 195.159 206.545 195.321 206.521 195.48C206.445 195.575 206.349 195.654 206.238 195.712C206.127 195.771 206.004 195.807 205.877 195.818H205.757C205.557 195.814 205.366 195.743 205.218 195.618C205.142 195.55 205.083 195.467 205.046 195.375C205.01 195.283 204.997 195.184 205.009 195.087Z" fill="#EB996E"/>
<path d="M208.924 192.072C208.91 192.17 208.858 192.26 208.777 192.326C208.697 192.391 208.593 192.427 208.486 192.427C208.379 192.427 208.275 192.391 208.195 192.326C208.114 192.26 208.062 192.17 208.048 192.072C208.054 191.967 208.104 191.868 208.188 191.796C208.271 191.724 208.382 191.684 208.497 191.686C208.553 191.685 208.608 191.695 208.66 191.714C208.712 191.733 208.759 191.761 208.798 191.797C208.838 191.833 208.87 191.876 208.891 191.923C208.913 191.97 208.924 192.021 208.924 192.072Z" fill="#263238"/>
<path d="M209.643 191.045C209.583 191.093 209.261 190.852 208.797 190.831C208.333 190.81 207.966 191.003 207.921 190.948C207.876 190.893 207.958 190.831 208.116 190.741C208.325 190.619 208.572 190.563 208.819 190.583C209.063 190.591 209.297 190.674 209.486 190.817C209.62 190.927 209.665 191.024 209.643 191.045Z" fill="#263238"/>
<path d="M206.686 194.314C206.931 194.26 207.182 194.23 207.434 194.225C207.554 194.225 207.674 194.225 207.696 194.128C207.713 194.015 207.692 193.899 207.636 193.797C207.539 193.528 207.434 193.245 207.329 192.942C207.045 192.214 206.822 191.466 206.663 190.707C207.014 191.411 207.302 192.14 207.524 192.886C207.629 193.19 207.719 193.473 207.816 193.749C207.879 193.886 207.892 194.038 207.853 194.183C207.833 194.221 207.804 194.255 207.767 194.281C207.731 194.307 207.689 194.326 207.644 194.335C207.577 194.344 207.509 194.344 207.442 194.335C207.19 194.36 206.935 194.353 206.686 194.314Z" fill="#263238"/>
<path d="M206.708 199.439C205.105 199.381 203.55 198.916 202.216 198.094C202.216 198.094 203.302 200.322 206.708 200.205V199.439Z" fill="#EB996E"/>
<path d="M205.286 194.542C205.368 194.542 205.338 195.011 205.757 195.37C206.177 195.728 206.716 195.701 206.716 195.763C206.716 195.825 206.588 195.846 206.364 195.846C206.063 195.833 205.776 195.723 205.555 195.535C205.342 195.358 205.212 195.11 205.196 194.845C205.188 194.652 205.256 194.542 205.286 194.542Z" fill="#263238"/>
<path d="M209.545 189.417C209.463 189.52 209.104 189.417 208.684 189.417C208.265 189.417 207.936 189.513 207.823 189.417C207.711 189.32 207.823 189.265 207.988 189.169C208.193 189.046 208.432 188.981 208.677 188.982C208.923 188.973 209.165 189.033 209.373 189.155C209.53 189.265 209.583 189.369 209.545 189.417Z" fill="#263238"/>
<path d="M203.773 192.017C203.771 192.122 203.814 192.224 203.893 192.3C203.971 192.376 204.079 192.421 204.193 192.424C204.248 192.43 204.304 192.425 204.357 192.411C204.41 192.396 204.46 192.371 204.503 192.338C204.545 192.305 204.58 192.265 204.606 192.219C204.631 192.174 204.646 192.124 204.649 192.072C204.651 191.967 204.609 191.865 204.531 191.787C204.452 191.71 204.345 191.664 204.23 191.659C204.174 191.654 204.118 191.659 204.065 191.675C204.012 191.691 203.962 191.716 203.92 191.749C203.877 191.783 203.842 191.824 203.817 191.87C203.792 191.916 203.777 191.966 203.773 192.017Z" fill="#263238"/>
<path d="M203.204 190.886C203.257 190.941 203.594 190.721 204.065 190.734C204.537 190.748 204.874 190.962 204.926 190.907C204.979 190.852 204.926 190.79 204.747 190.686C204.545 190.554 204.305 190.482 204.058 190.479C203.815 190.477 203.577 190.545 203.377 190.672C203.227 190.769 203.174 190.865 203.204 190.886Z" fill="#263238"/>
<path d="M202.935 189.962C203.025 190.058 203.392 189.962 203.826 189.962C204.26 189.962 204.627 190.038 204.717 189.962C204.807 189.886 204.717 189.817 204.537 189.72C204.319 189.603 204.071 189.541 203.818 189.541C203.566 189.541 203.318 189.603 203.1 189.72C202.943 189.81 202.89 189.914 202.935 189.962Z" fill="#263238"/>
<path d="M200.203 192.935C200.203 192.7 199.963 192.141 199.708 192.093C199.05 191.962 197.844 191.948 197.74 193.507C197.597 195.639 199.985 195.335 199.985 195.273C199.985 195.211 200.158 193.742 200.203 192.935Z" fill="#FFBE9D"/>
<path d="M199.371 194.459C199.371 194.459 199.334 194.459 199.259 194.507C199.163 194.541 199.056 194.541 198.96 194.507C198.815 194.413 198.701 194.284 198.628 194.135C198.556 193.986 198.528 193.821 198.548 193.659C198.556 193.476 198.607 193.297 198.697 193.135C198.724 193.07 198.768 193.011 198.823 192.965C198.879 192.918 198.947 192.884 199.019 192.866C199.066 192.857 199.114 192.864 199.156 192.884C199.199 192.904 199.232 192.936 199.251 192.976C199.258 193.013 199.258 193.05 199.251 193.086C199.251 193.086 199.304 193.052 199.289 192.962C199.278 192.91 199.249 192.861 199.207 192.824C199.177 192.801 199.142 192.784 199.105 192.773C199.068 192.762 199.028 192.759 198.989 192.762C198.893 192.772 198.802 192.806 198.724 192.859C198.646 192.912 198.586 192.984 198.548 193.066C198.436 193.244 198.374 193.446 198.368 193.652C198.343 193.841 198.38 194.032 198.473 194.201C198.566 194.371 198.712 194.511 198.892 194.604C198.95 194.63 199.014 194.644 199.079 194.644C199.144 194.644 199.208 194.63 199.266 194.604C199.371 194.507 199.371 194.459 199.371 194.459Z" fill="#EB996E"/>
<path d="M199.618 192.073L200.202 192.638C202.748 190.396 207.726 184.789 207.449 185.127C206.288 184.726 205.038 184.601 203.811 184.761C201.917 185.058 198.331 185.927 198.383 187.982C198.495 189.408 198.915 190.798 199.618 192.073Z" fill="#263238"/>
<path d="M196.25 191.624C196.25 191.624 196.25 191.583 196.25 191.5C196.295 191.387 196.348 191.277 196.407 191.169C196.649 190.772 196.981 190.429 197.38 190.162C197.986 189.776 198.66 189.489 199.371 189.313C200.12 189.079 201.018 188.9 201.879 188.562C202.69 188.252 203.459 187.856 204.17 187.382C204.751 186.996 205.292 186.562 205.787 186.085C206.206 185.671 206.536 185.313 206.723 185.064C206.813 184.94 206.895 184.844 206.955 184.768C207.015 184.692 207.037 184.664 207.045 184.671L206.978 184.782L206.76 185.085C206.485 185.455 206.18 185.806 205.847 186.134C205.355 186.624 204.814 187.07 204.23 187.465C203.512 187.934 202.735 188.323 201.917 188.624C201.048 188.962 200.165 189.141 199.394 189.369C198.705 189.544 198.052 189.824 197.462 190.196C197.065 190.451 196.731 190.78 196.482 191.162C196.394 191.312 196.317 191.466 196.25 191.624Z" fill="#455A64"/>
<path d="M196.923 191.962C196.918 191.802 196.948 191.642 197.013 191.493C197.184 191.086 197.488 190.736 197.882 190.493C198.471 190.146 199.131 189.911 199.821 189.803C200.646 189.655 201.452 189.423 202.224 189.113C202.989 188.793 203.709 188.385 204.365 187.899C205.266 187.234 206.041 186.434 206.655 185.533C206.738 185.409 206.805 185.313 206.85 185.23C206.874 185.196 206.902 185.163 206.932 185.133C206.917 185.172 206.896 185.209 206.873 185.244L206.693 185.554C206.463 185.929 206.197 186.285 205.899 186.616C205.457 187.126 204.955 187.588 204.402 187.996C203.742 188.492 203.014 188.907 202.239 189.231C201.458 189.543 200.642 189.774 199.806 189.92C199.126 190.031 198.477 190.266 197.897 190.61C197.504 190.839 197.198 191.174 197.021 191.569C196.975 191.697 196.942 191.829 196.923 191.962Z" fill="#455A64"/>
<path d="M195.572 211.227C195.458 209.87 195.458 208.508 195.572 207.151C195.676 208.508 195.676 209.87 195.572 211.227Z" fill="#263238"/>
<path d="M211.454 210.945C211.433 210.703 211.433 210.461 211.454 210.22C211.499 209.643 211.477 209.062 211.387 208.489C211.269 207.922 211.089 207.367 210.848 206.834C210.736 206.611 210.646 206.381 210.578 206.144C210.725 206.345 210.848 206.56 210.945 206.785C211.224 207.317 211.423 207.881 211.537 208.461C211.626 209.045 211.626 209.637 211.537 210.22C211.543 210.464 211.515 210.707 211.454 210.945Z" fill="#263238"/>
<path d="M292.261 206.475H235.029C233.664 206.473 232.356 205.972 231.392 205.082C230.427 204.193 229.886 202.987 229.886 201.729V190.114L223.575 184.954H292.261C293.625 184.956 294.932 185.456 295.896 186.344C296.86 187.232 297.403 188.437 297.404 189.693V201.729C297.404 202.987 296.863 204.193 295.899 205.082C294.934 205.972 293.626 206.473 292.261 206.475Z" fill="#EBEBEB"/>
<path d="M291.527 191.293C291.527 191.397 279.033 191.472 263.619 191.472C248.204 191.472 235.717 191.397 235.717 191.293C235.717 191.19 248.204 191.114 263.619 191.114C279.033 191.114 291.527 191.196 291.527 191.293Z" fill="white"/>
<path d="M291.527 195.073C291.527 195.17 279.033 195.252 263.619 195.252C248.204 195.252 235.717 195.17 235.717 195.073C235.717 194.976 248.204 194.894 263.619 194.894C279.033 194.894 291.527 194.976 291.527 195.073Z" fill="white"/>
<path d="M291.527 198.853C291.527 198.949 279.033 199.032 263.619 199.032C248.204 199.032 235.717 198.949 235.717 198.853C235.717 198.756 248.204 198.674 263.619 198.674C279.033 198.674 291.527 198.749 291.527 198.853Z" fill="white"/>
<path d="M291.527 106.362C291.527 106.459 279.033 106.541 263.619 106.541C248.204 106.541 235.717 106.459 235.717 106.362C235.717 106.266 248.204 106.183 263.619 106.183C279.033 106.183 291.527 106.259 291.527 106.362Z" fill="white"/>
<path d="M291.527 110.135C291.527 110.239 279.033 110.314 263.619 110.314C248.204 110.314 235.717 110.239 235.717 110.135C235.717 110.032 248.204 109.956 263.619 109.956C279.033 109.956 291.527 110.038 291.527 110.135Z" fill="white"/>
<path d="M291.527 114.674C291.527 114.777 279.033 114.853 263.619 114.853C248.204 114.853 235.717 114.777 235.717 114.674C235.717 114.57 248.204 114.494 263.619 114.494C279.033 114.494 291.527 114.577 291.527 114.674Z" fill="white"/>
<path d="M236.054 49.0356C236.094 48.4996 236.303 47.986 236.656 47.5579C237.008 47.1298 237.488 46.8057 238.037 46.6256C238.587 46.4454 239.181 46.4169 239.748 46.5436C240.315 46.6703 240.829 46.9466 241.227 47.3387L240.426 48.0285C240.261 47.8437 240.052 47.6952 239.817 47.5938C239.581 47.4924 239.324 47.4406 239.064 47.4422C238.603 47.4422 238.161 47.6108 237.836 47.9109C237.51 48.211 237.327 48.618 237.327 49.0425C237.327 49.4669 237.51 49.8739 237.836 50.174C238.161 50.4741 238.603 50.6427 239.064 50.6427C239.325 50.6445 239.583 50.5921 239.818 50.4894C240.054 50.3867 240.262 50.2363 240.426 50.0495L241.227 50.7393C240.829 51.1311 240.316 51.4075 239.75 51.5344C239.184 51.6614 238.59 51.6335 238.041 51.4541C237.491 51.2747 237.011 50.9517 236.658 50.5246C236.305 50.0974 236.096 49.5848 236.054 49.0493V49.0356Z" fill="#263238"/>
<path d="M246.206 49.3321V51.5325H245.038V49.5046C245.038 48.8838 244.723 48.601 244.192 48.601C243.66 48.601 243.196 48.9321 243.196 49.6356V51.5325H241.983V46.242H243.196V48.0974C243.372 47.942 243.58 47.8209 243.807 47.7415C244.035 47.6621 244.278 47.626 244.521 47.6353C244.759 47.6264 244.996 47.6655 245.215 47.7497C245.434 47.8339 245.631 47.9613 245.792 48.1229C245.952 48.2845 246.072 48.4765 246.144 48.6853C246.215 48.8942 246.236 49.1149 246.206 49.3321Z" fill="#263238"/>
<path d="M250.982 49.3459V51.5325H249.852V51.0566C249.711 51.2427 249.519 51.3904 249.295 51.4839C249.071 51.5774 248.823 51.6133 248.579 51.5877C247.606 51.5877 247.029 51.0911 247.029 50.4289C247.029 49.7667 247.546 49.277 248.819 49.277H249.777C249.777 48.801 249.462 48.5251 248.819 48.5251C248.386 48.5211 247.964 48.6443 247.613 48.8769L247.179 48.1044C247.713 47.7856 248.339 47.6221 248.976 47.6353C250.278 47.6353 250.982 48.1802 250.982 49.3459ZM249.777 50.3185V49.9253H248.946C248.384 49.9253 248.197 50.1185 248.197 50.3806C248.197 50.6427 248.452 50.8427 248.878 50.8427C249.069 50.856 249.26 50.8121 249.422 50.7177C249.584 50.6232 249.708 50.4833 249.777 50.3185Z" fill="#263238"/>
<path d="M254.77 51.36C254.475 51.5308 254.13 51.615 253.782 51.6014C253.576 51.6275 253.367 51.6102 253.169 51.5508C252.972 51.4915 252.792 51.3916 252.643 51.2587C252.494 51.1259 252.379 50.9635 252.308 50.7839C252.237 50.6043 252.211 50.4121 252.232 50.2219V48.6423H251.588V47.787H252.232V46.8489H253.437V47.787H254.478V48.6423H253.437V50.2081C253.428 50.2738 253.435 50.3406 253.457 50.4036C253.48 50.4666 253.517 50.5242 253.566 50.5723C253.616 50.6205 253.676 50.658 253.743 50.682C253.81 50.7061 253.882 50.7162 253.954 50.7116C254.129 50.7175 254.302 50.6662 254.44 50.5668L254.77 51.36Z" fill="#263238"/>
<path d="M276.128 56.7333C276.128 56.8299 263.402 56.9127 247.628 56.9127C231.854 56.9127 219.135 56.8299 219.135 56.7333C219.135 56.6368 231.862 56.5471 247.628 56.5471C263.394 56.5471 276.128 56.6299 276.128 56.7333Z" fill="#263238"/>
<path d="M301.38 49.0355C302.111 49.0355 302.705 48.4889 302.705 47.8146C302.705 47.1404 302.111 46.5938 301.38 46.5938C300.648 46.5938 300.055 47.1404 300.055 47.8146C300.055 48.4889 300.648 49.0355 301.38 49.0355Z" fill="#263238"/>
<path d="M302.682 51.36C302.683 51.6034 302.606 51.8418 302.46 52.0447C302.315 52.2477 302.107 52.4061 301.863 52.4999C301.619 52.5937 301.35 52.6186 301.091 52.5714C300.832 52.5243 300.594 52.4072 300.407 52.2351C300.22 52.063 300.093 51.8436 300.042 51.6048C299.991 51.3659 300.018 51.1185 300.12 50.8939C300.221 50.6693 300.393 50.4776 300.614 50.3432C300.834 50.2088 301.093 50.1378 301.357 50.1391C301.708 50.141 302.044 50.2702 302.292 50.4987C302.54 50.7273 302.68 51.0368 302.682 51.36Z" fill="#263238"/>
<path d="M302.682 54.94C302.683 55.1834 302.606 55.4217 302.46 55.6247C302.315 55.8276 302.107 55.9861 301.863 56.0798C301.619 56.1736 301.35 56.1985 301.091 56.1514C300.832 56.1042 300.594 55.9871 300.407 55.815C300.22 55.6429 300.093 55.4235 300.042 55.1847C299.991 54.9459 300.018 54.6984 300.12 54.4738C300.221 54.2492 300.393 54.0575 300.614 53.9231C300.834 53.7887 301.093 53.7177 301.357 53.7191C301.708 53.7191 302.045 53.8477 302.294 54.0767C302.542 54.3056 302.682 54.6162 302.682 54.94Z" fill="#263238"/>
<path d="M193.622 51.9533C193.541 51.9549 193.462 51.9305 193.398 51.8843L189.887 49.5115C189.838 49.4786 189.799 49.436 189.772 49.387C189.745 49.3379 189.73 49.2838 189.729 49.2287C189.73 49.1744 189.744 49.1211 189.771 49.073C189.799 49.025 189.838 48.9838 189.887 48.9528L193.398 46.6214C193.438 46.5949 193.483 46.576 193.532 46.5659C193.58 46.5557 193.63 46.5544 193.678 46.5621C193.727 46.5698 193.774 46.5863 193.815 46.6107C193.857 46.6351 193.893 46.6668 193.922 46.7041C193.978 46.7777 194.001 46.8686 193.986 46.9575C193.97 47.0465 193.918 47.1263 193.839 47.1801L190.74 49.2494L193.839 51.3187C193.918 51.3736 193.971 51.4547 193.986 51.5448C194.002 51.6348 193.978 51.7269 193.922 51.8015C193.889 51.8473 193.844 51.885 193.792 51.9115C193.74 51.9379 193.682 51.9522 193.622 51.9533Z" fill="#263238"/>
<path d="M285.246 167.931C294.52 167.931 302.038 161.019 302.038 152.494C302.038 143.968 294.52 137.057 285.246 137.057C275.973 137.057 268.455 143.968 268.455 152.494C268.455 161.019 275.973 167.931 285.246 167.931Z" fill="#E0E0E0"/>
<path d="M289.843 161.619H281.009C280.708 161.619 280.418 161.509 280.205 161.312C279.991 161.116 279.872 160.849 279.872 160.571C279.872 160.292 279.991 160.025 280.204 159.827C280.418 159.629 280.707 159.517 281.009 159.516H289.843C290.146 159.517 290.435 159.629 290.648 159.827C290.862 160.025 290.981 160.292 290.981 160.571C290.981 160.849 290.861 161.116 290.648 161.312C290.435 161.509 290.145 161.619 289.843 161.619Z" fill="#263238"/>
<path d="M285.928 142.458H285.149V146.072H285.928V142.458Z" fill="#263238"/>
<path d="M274.092 156.908C275.349 156.908 276.368 155.969 276.368 154.811C276.368 153.653 275.349 152.714 274.092 152.714C272.835 152.714 271.816 153.653 271.816 154.811C271.816 155.969 272.835 156.908 274.092 156.908Z" fill="#FF725E"/>
<path d="M297.105 156.77C298.362 156.77 299.381 155.831 299.381 154.673C299.381 153.515 298.362 152.576 297.105 152.576C295.848 152.576 294.829 153.515 294.829 154.673C294.829 155.831 295.848 156.77 297.105 156.77Z" fill="#FF725E"/>
<path d="M285.875 145.313C285.875 145.313 295.144 145.21 296.611 152.611C298.078 160.012 290.24 160.143 287.987 160.281C286.968 160.343 284.782 160.35 282.851 160.323C278.576 160.254 275.559 159.495 274.534 155.839C274.411 155.41 274.333 154.971 274.302 154.529C274.032 150.528 276.967 145.12 285.875 145.313Z" fill="#FF725E"/>
<path d="M279.153 156.577L292.628 156.77C293.306 156.779 293.96 156.541 294.447 156.106C294.934 155.672 295.214 155.077 295.226 154.453C295.234 153.828 294.973 153.226 294.5 152.779C294.027 152.331 293.381 152.075 292.703 152.066L279.227 151.873C278.892 151.867 278.558 151.923 278.245 152.037C277.933 152.15 277.648 152.32 277.406 152.535C277.165 152.75 276.972 153.007 276.839 153.291C276.706 153.575 276.635 153.881 276.63 154.191C276.625 154.5 276.686 154.807 276.81 155.095C276.935 155.382 277.119 155.645 277.354 155.866C277.588 156.088 277.867 156.265 278.176 156.387C278.485 156.509 278.817 156.574 279.153 156.577Z" fill="#263238"/>
<path d="M289.828 154.197C289.848 154.295 289.888 154.388 289.947 154.471C290.006 154.554 290.083 154.626 290.172 154.681C290.261 154.737 290.361 154.776 290.466 154.796C290.572 154.816 290.681 154.816 290.786 154.798C290.9 154.787 291.011 154.755 291.11 154.702C291.21 154.65 291.297 154.58 291.365 154.495C291.433 154.41 291.481 154.313 291.507 154.21C291.532 154.107 291.534 154.001 291.512 153.897C291.49 153.794 291.445 153.695 291.379 153.609C291.314 153.522 291.229 153.449 291.132 153.394C291.034 153.339 290.924 153.304 290.811 153.29C290.697 153.277 290.582 153.285 290.472 153.315C290.367 153.334 290.267 153.371 290.177 153.426C290.088 153.481 290.011 153.551 289.951 153.633C289.892 153.715 289.85 153.807 289.829 153.904C289.808 154.001 289.807 154.1 289.828 154.197Z" fill="white"/>
<path d="M280.418 154.059C280.43 154.164 280.465 154.266 280.521 154.358C280.578 154.45 280.655 154.53 280.747 154.592C280.838 154.655 280.944 154.7 281.055 154.723C281.167 154.747 281.283 154.748 281.395 154.728C281.508 154.708 281.614 154.666 281.708 154.606C281.802 154.545 281.882 154.468 281.941 154.377C282.001 154.287 282.039 154.187 282.054 154.082C282.069 153.977 282.06 153.871 282.028 153.77C281.97 153.588 281.841 153.433 281.665 153.335C281.49 153.237 281.281 153.202 281.08 153.239C280.878 153.275 280.699 153.379 280.576 153.531C280.454 153.683 280.397 153.871 280.418 154.059Z" fill="white"/>
<path d="M286.819 142.409C286.82 142.643 286.746 142.872 286.606 143.066C286.467 143.261 286.267 143.414 286.034 143.504C285.8 143.594 285.542 143.619 285.293 143.574C285.044 143.529 284.816 143.417 284.636 143.253C284.456 143.088 284.333 142.878 284.283 142.649C284.233 142.42 284.258 142.182 284.355 141.966C284.452 141.75 284.616 141.566 284.826 141.436C285.037 141.306 285.285 141.237 285.538 141.237C285.877 141.237 286.201 141.36 286.441 141.58C286.681 141.799 286.817 142.098 286.819 142.409Z" fill="#FF725E"/>
<path d="M287.47 153.853C287.47 153.853 287.522 153.908 287.552 154.032C287.576 154.208 287.558 154.387 287.5 154.556C287.418 154.818 287.263 155.056 287.051 155.246C286.791 155.485 286.45 155.633 286.085 155.667C285.72 155.695 285.356 155.607 285.052 155.418C284.812 155.268 284.614 155.067 284.476 154.832C284.387 154.674 284.336 154.5 284.326 154.322C284.326 154.197 284.326 154.128 284.371 154.128C284.416 154.128 284.446 154.391 284.693 154.715C284.837 154.894 285.017 155.047 285.224 155.163C285.475 155.3 285.765 155.363 286.055 155.342C286.334 155.31 286.595 155.199 286.804 155.025C286.992 154.881 287.143 154.699 287.245 154.494C287.44 154.135 287.41 153.853 287.47 153.853Z" fill="white"/>
<path d="M296.596 152.37C296.624 152.427 296.647 152.487 296.663 152.549C296.693 152.621 296.718 152.695 296.738 152.77C296.738 152.852 296.791 152.949 296.813 153.066C296.87 153.323 296.91 153.584 296.933 153.846C296.959 154.167 296.959 154.49 296.933 154.811C296.902 155.132 296.844 155.45 296.761 155.763C296.69 156.017 296.6 156.266 296.491 156.508C296.454 156.604 296.412 156.699 296.364 156.791C296.331 156.86 296.294 156.927 296.252 156.991L296.147 157.163C296.163 157.1 296.191 157.039 296.229 156.984L296.327 156.77C296.364 156.687 296.409 156.598 296.446 156.494C296.547 156.251 296.63 156.003 296.693 155.749C296.773 155.438 296.831 155.123 296.866 154.804C296.888 154.485 296.888 154.165 296.866 153.846C296.847 153.586 296.812 153.329 296.761 153.073C296.745 152.966 296.723 152.86 296.693 152.756C296.693 152.666 296.656 152.597 296.641 152.535C296.618 152.482 296.603 152.426 296.596 152.37Z" fill="#263238"/>
<path d="M274.638 152.411C274.606 152.47 274.581 152.533 274.564 152.597C274.564 152.652 274.519 152.728 274.489 152.811C274.459 152.894 274.436 152.997 274.414 153.108C274.356 153.365 274.319 153.625 274.302 153.887C274.275 154.208 274.275 154.531 274.302 154.853C274.331 155.174 274.389 155.492 274.474 155.805C274.543 156.061 274.633 156.312 274.743 156.556C274.781 156.66 274.833 156.75 274.871 156.832C274.908 156.915 274.953 156.984 274.983 157.039L275.088 157.205C275.068 157.142 275.04 157.082 275.005 157.025C275.005 156.97 274.945 156.901 274.908 156.819C274.87 156.736 274.826 156.646 274.788 156.543C274.688 156.297 274.605 156.046 274.541 155.791C274.461 155.48 274.403 155.164 274.369 154.846C274.347 154.529 274.347 154.211 274.369 153.894C274.388 153.632 274.423 153.372 274.474 153.114C274.49 153.017 274.512 152.92 274.541 152.825C274.541 152.735 274.579 152.659 274.594 152.604C274.608 152.549 274.638 152.411 274.638 152.411Z" fill="#263238"/>
<path d="M276.637 165.751C276.637 165.751 279.392 163.275 285.149 163.275C290.906 163.275 293.856 165.751 293.856 165.751C291.258 167.195 288.281 167.959 285.246 167.959C282.212 167.959 279.235 167.195 276.637 165.751Z" fill="#FF725E"/>
<path d="M193.382 168.234H250.608C251.283 168.235 251.952 168.113 252.577 167.875C253.201 167.637 253.769 167.288 254.246 166.848C254.724 166.408 255.103 165.885 255.361 165.31C255.619 164.735 255.752 164.118 255.751 163.495V148.196L262.062 143.037H193.382C192.707 143.037 192.038 143.16 191.414 143.398C190.79 143.636 190.223 143.985 189.746 144.425C189.268 144.865 188.889 145.387 188.631 145.962C188.372 146.537 188.239 147.153 188.239 147.776V163.495C188.238 164.118 188.371 164.735 188.629 165.31C188.887 165.885 189.266 166.408 189.743 166.848C190.221 167.288 190.789 167.637 191.413 167.875C192.037 168.113 192.707 168.235 193.382 168.234Z" fill="#EBEBEB"/>
<path d="M248.032 150.514C248.032 150.617 236.249 150.693 221.71 150.693C207.172 150.693 195.389 150.617 195.389 150.514C195.389 150.411 207.172 150.335 221.71 150.335C236.249 150.335 248.032 150.417 248.032 150.514Z" fill="white"/>
<path d="M248.032 154.611C248.032 154.715 236.249 154.791 221.71 154.791C207.172 154.791 195.389 154.715 195.389 154.611C195.389 154.508 207.172 154.432 221.71 154.432C236.249 154.432 248.032 154.515 248.032 154.611Z" fill="white"/>
<path d="M248.032 158.708C248.032 158.805 236.249 158.888 221.71 158.888C207.172 158.888 195.389 158.805 195.389 158.708C195.389 158.612 207.172 158.529 221.71 158.529C236.249 158.529 248.032 158.612 248.032 158.708Z" fill="white"/>
<path d="M248.032 162.806C248.032 162.902 236.249 162.985 221.71 162.985C207.172 162.985 195.389 162.902 195.389 162.806C195.389 162.709 207.172 162.626 221.71 162.626C236.249 162.626 248.032 162.702 248.032 162.806Z" fill="white"/>
<path d="M285.246 253.655C294.52 253.655 302.038 246.744 302.038 238.218C302.038 229.692 294.52 222.781 285.246 222.781C275.973 222.781 268.455 229.692 268.455 238.218C268.455 246.744 275.973 253.655 285.246 253.655Z" fill="#E0E0E0"/>
<path d="M289.843 247.343H281.009C280.859 247.343 280.711 247.316 280.572 247.263C280.434 247.21 280.308 247.132 280.202 247.034C280.096 246.936 280.013 246.819 279.956 246.691C279.899 246.563 279.871 246.426 279.872 246.288C279.872 246.01 279.991 245.743 280.205 245.547C280.418 245.35 280.708 245.24 281.009 245.24H289.843C290.145 245.24 290.435 245.35 290.648 245.547C290.861 245.743 290.981 246.01 290.981 246.288C290.982 246.426 290.954 246.563 290.897 246.691C290.84 246.819 290.756 246.936 290.651 247.034C290.545 247.132 290.419 247.21 290.281 247.263C290.142 247.316 289.993 247.343 289.843 247.343Z" fill="#263238"/>
<path d="M285.928 228.182H285.149V231.796H285.928V228.182Z" fill="#263238"/>
<path d="M274.092 242.632C275.349 242.632 276.368 241.694 276.368 240.535C276.368 239.377 275.349 238.439 274.092 238.439C272.835 238.439 271.816 239.377 271.816 240.535C271.816 241.694 272.835 242.632 274.092 242.632Z" fill="#FF725E"/>
<path d="M297.105 242.488C298.362 242.488 299.381 241.549 299.381 240.391C299.381 239.233 298.362 238.294 297.105 238.294C295.848 238.294 294.829 239.233 294.829 240.391C294.829 241.549 295.848 242.488 297.105 242.488Z" fill="#FF725E"/>
<path d="M285.875 231.037C285.875 231.037 295.144 230.934 296.611 238.328C298.078 245.723 290.24 245.867 287.987 246.005C286.968 246.067 284.782 246.074 282.851 246.047C278.576 245.978 275.559 245.212 274.534 241.563C274.411 241.134 274.333 240.695 274.302 240.253C274.032 236.252 276.967 230.837 285.875 231.037Z" fill="#FF725E"/>
<path d="M279.153 242.301L292.628 242.494C293.306 242.504 293.96 242.265 294.447 241.83C294.934 241.396 295.214 240.801 295.226 240.177C295.234 239.552 294.973 238.95 294.5 238.503C294.027 238.056 293.381 237.799 292.703 237.79L279.227 237.59C278.55 237.581 277.896 237.82 277.409 238.254C276.922 238.689 276.642 239.283 276.63 239.908C276.625 240.218 276.686 240.525 276.81 240.813C276.934 241.101 277.119 241.364 277.353 241.586C277.587 241.808 277.867 241.986 278.176 242.109C278.484 242.231 278.816 242.297 279.153 242.301Z" fill="#263238"/>
<path d="M289.828 239.922C289.846 240.02 289.885 240.114 289.943 240.198C290 240.283 290.076 240.356 290.164 240.413C290.252 240.471 290.352 240.512 290.457 240.534C290.563 240.556 290.672 240.559 290.779 240.542C290.885 240.526 290.988 240.49 291.079 240.437C291.171 240.384 291.25 240.314 291.313 240.233C291.375 240.152 291.42 240.06 291.444 239.963C291.468 239.865 291.471 239.765 291.453 239.666C291.441 239.561 291.406 239.46 291.349 239.368C291.293 239.276 291.216 239.196 291.124 239.133C291.032 239.071 290.927 239.026 290.815 239.003C290.704 238.979 290.588 238.978 290.475 238.998C290.363 239.018 290.256 239.06 290.162 239.12C290.068 239.18 289.989 239.258 289.93 239.348C289.87 239.439 289.832 239.539 289.817 239.644C289.802 239.748 289.811 239.855 289.843 239.956L289.828 239.922Z" fill="white"/>
<path d="M280.418 239.784C280.449 239.931 280.527 240.066 280.642 240.173C280.756 240.28 280.903 240.352 281.062 240.382C281.222 240.412 281.388 240.398 281.538 240.341C281.689 240.284 281.818 240.187 281.909 240.063C282 239.939 282.049 239.792 282.05 239.642C282.051 239.492 282.003 239.345 281.913 239.22C281.823 239.095 281.695 238.997 281.545 238.939C281.395 238.881 281.229 238.865 281.069 238.894C280.963 238.913 280.862 238.951 280.772 239.006C280.682 239.061 280.604 239.132 280.544 239.214C280.483 239.297 280.441 239.39 280.419 239.488C280.398 239.585 280.397 239.686 280.418 239.784Z" fill="white"/>
<path d="M286.819 228.106C286.819 228.339 286.744 228.567 286.603 228.761C286.462 228.955 286.262 229.106 286.028 229.196C285.794 229.285 285.537 229.308 285.289 229.263C285.04 229.217 284.812 229.105 284.633 228.94C284.454 228.775 284.332 228.565 284.283 228.336C284.234 228.107 284.259 227.87 284.356 227.655C284.453 227.439 284.617 227.255 284.827 227.125C285.038 226.996 285.285 226.926 285.538 226.926C285.878 226.926 286.204 227.051 286.444 227.272C286.684 227.493 286.819 227.793 286.819 228.106Z" fill="#FF725E"/>
<path d="M287.47 239.57C287.47 239.57 287.522 239.632 287.552 239.756C287.576 239.932 287.558 240.111 287.5 240.28C287.416 240.541 287.261 240.779 287.051 240.97C286.791 241.209 286.45 241.358 286.085 241.391C285.72 241.419 285.356 241.331 285.052 241.143C284.812 240.992 284.614 240.791 284.476 240.556C284.388 240.397 284.337 240.224 284.326 240.046C284.326 239.922 284.326 239.853 284.371 239.853C284.416 239.853 284.446 240.115 284.693 240.432C284.834 240.616 285.015 240.77 285.224 240.887C285.476 241.02 285.765 241.082 286.055 241.067C286.334 241.034 286.595 240.923 286.804 240.749C286.989 240.602 287.14 240.421 287.245 240.218C287.44 239.846 287.41 239.577 287.47 239.57Z" fill="white"/>
<path d="M296.596 238.087C296.596 238.087 296.596 238.156 296.663 238.273C296.694 238.345 296.719 238.419 296.738 238.494C296.738 238.577 296.791 238.673 296.813 238.783C296.869 239.041 296.909 239.301 296.933 239.563C296.959 239.884 296.959 240.207 296.933 240.529C296.903 240.85 296.845 241.168 296.761 241.48C296.691 241.737 296.601 241.988 296.491 242.232C296.454 242.326 296.412 242.418 296.364 242.508C296.333 242.58 296.295 242.649 296.252 242.715L296.147 242.881C296.167 242.818 296.194 242.758 296.229 242.701C296.229 242.646 296.289 242.577 296.327 242.494C296.364 242.412 296.409 242.322 296.446 242.219C296.548 241.974 296.631 241.722 296.693 241.467C296.774 241.158 296.831 240.845 296.866 240.529C296.888 240.209 296.888 239.889 296.866 239.57C296.847 239.311 296.812 239.053 296.761 238.797C296.745 238.697 296.722 238.598 296.693 238.501C296.693 238.411 296.656 238.342 296.641 238.28C296.615 238.218 296.6 238.153 296.596 238.087Z" fill="#263238"/>
<path d="M274.638 238.135C274.606 238.195 274.581 238.257 274.564 238.321C274.564 238.377 274.519 238.452 274.489 238.535C274.459 238.618 274.436 238.721 274.414 238.832C274.356 239.089 274.319 239.349 274.302 239.611C274.275 239.933 274.275 240.255 274.302 240.577C274.332 240.898 274.39 241.216 274.474 241.529C274.543 241.785 274.633 242.037 274.743 242.281C274.781 242.384 274.833 242.474 274.871 242.557C274.908 242.639 274.953 242.708 274.983 242.763L275.088 242.929C275.07 242.866 275.042 242.806 275.005 242.75C275.005 242.694 274.945 242.626 274.908 242.543C274.87 242.46 274.826 242.37 274.788 242.26C274.687 242.017 274.605 241.768 274.541 241.515C274.461 241.204 274.403 240.888 274.369 240.57C274.347 240.253 274.347 239.935 274.369 239.618C274.388 239.357 274.423 239.096 274.474 238.839C274.49 238.741 274.512 238.644 274.541 238.549C274.541 238.459 274.579 238.383 274.594 238.328C274.608 238.273 274.638 238.135 274.638 238.135Z" fill="#263238"/>
<path d="M276.637 251.475C276.637 251.475 279.392 248.999 285.149 248.999C290.906 248.999 293.856 251.475 293.856 251.475C291.258 252.92 288.281 253.683 285.246 253.683C282.212 253.683 279.235 252.92 276.637 251.475Z" fill="#FF725E"/>
<path d="M193.382 253.958H250.608C251.283 253.959 251.952 253.837 252.577 253.6C253.201 253.362 253.769 253.013 254.246 252.573C254.724 252.132 255.103 251.61 255.361 251.034C255.619 250.459 255.752 249.842 255.751 249.22V233.921L262.062 228.761H193.382C192.707 228.761 192.038 228.884 191.414 229.122C190.79 229.36 190.223 229.709 189.746 230.149C189.268 230.589 188.889 231.112 188.631 231.687C188.372 232.261 188.239 232.878 188.239 233.5V249.22C188.238 249.842 188.371 250.459 188.629 251.034C188.887 251.61 189.266 252.132 189.743 252.573C190.221 253.013 190.789 253.362 191.413 253.6C192.037 253.837 192.707 253.959 193.382 253.958Z" fill="#EBEBEB"/>
<path d="M193.382 277.886H250.608C251.284 277.886 251.953 277.764 252.577 277.525C253.202 277.286 253.769 276.937 254.247 276.496C254.725 276.055 255.103 275.532 255.361 274.956C255.619 274.381 255.752 273.764 255.751 273.141V268.071L262.062 262.912H193.382C192.707 262.912 192.038 263.034 191.414 263.272C190.79 263.51 190.223 263.859 189.746 264.299C189.268 264.74 188.889 265.262 188.631 265.837C188.372 266.412 188.239 267.028 188.239 267.65V273.168C188.245 274.422 188.79 275.622 189.754 276.506C190.717 277.39 192.022 277.886 193.382 277.886Z" fill="#EBEBEB"/>
<path d="M248.032 236.218C248.032 236.321 236.249 236.397 221.71 236.397C207.172 236.397 195.389 236.321 195.389 236.218C195.389 236.114 207.172 236.038 221.71 236.038C236.249 236.038 248.032 236.142 248.032 236.218Z" fill="white"/>
<path d="M248.032 240.356C248.032 240.453 236.249 240.536 221.71 240.536C207.172 240.536 195.389 240.453 195.389 240.356C195.389 240.26 207.172 240.177 221.71 240.177C236.249 240.177 248.032 240.239 248.032 240.356Z" fill="white"/>
<path d="M248.032 244.433C248.032 244.529 236.249 244.612 221.71 244.612C207.172 244.612 195.389 244.529 195.389 244.433C195.389 244.336 207.172 244.253 221.71 244.253C236.249 244.253 248.032 244.329 248.032 244.433Z" fill="white"/>
<path d="M248.032 248.53C248.032 248.626 236.249 248.709 221.71 248.709C207.172 248.709 195.389 248.626 195.389 248.53C195.389 248.433 207.172 248.351 221.71 248.351C236.249 248.351 248.032 248.426 248.032 248.53Z" fill="white"/>
<path d="M248.212 270.616C248.212 270.713 236.548 270.796 222.167 270.796C207.786 270.796 196.115 270.713 196.115 270.616C196.115 270.52 207.779 270.437 222.167 270.437C236.556 270.437 248.212 270.513 248.212 270.616Z" fill="white"/>
<path d="M56.7131 260.628C57.7214 260.852 58.6703 261.261 59.5026 261.832C60.335 262.402 61.0337 263.121 61.5567 263.946C62.5915 265.608 63.2033 267.464 63.3459 269.375C63.7277 273.044 62.3428 277.093 60.6209 280.411C56.7355 278.411 54.9313 273.962 54.1677 271.651C52.9625 268.002 53.187 260.725 56.7131 260.615" fill="#455A64"/>
<path d="M65.7864 285.598C65.3224 284.62 65.1473 283.547 65.2788 282.487C65.4103 281.427 65.8436 280.418 66.535 279.563C67.2465 278.72 68.1335 278.017 69.144 277.495C70.1544 276.972 71.268 276.641 72.4192 276.521C72.9359 276.418 73.4705 276.418 73.9871 276.521C74.5037 276.625 74.9901 276.829 75.4137 277.121C75.758 277.458 75.998 277.873 76.1086 278.325C76.2192 278.776 76.1964 279.246 76.0426 279.687C75.7245 280.564 75.1617 281.349 74.4106 281.963C71.9476 284.156 69.1252 285.86 65.7115 285.598" fill="#455A64"/>
<path d="M64.1091 297.414C64.0649 297.163 64.0474 296.909 64.0567 296.655C64.0567 296.117 64.0567 295.42 63.9968 294.586C63.8443 292.298 64.0972 290.004 64.7455 287.791C65.4415 285.573 66.7672 283.566 68.5859 281.977C69.1428 281.504 69.7585 281.095 70.4201 280.756C70.5966 280.663 70.7791 280.58 70.9666 280.507C71.0285 280.473 71.0971 280.449 71.1687 280.438C70.2968 280.921 69.4792 281.483 68.7282 282.115C66.9709 283.708 65.6828 285.688 64.985 287.867C64.3408 290.055 64.0557 292.32 64.1391 294.586C64.1391 295.462 64.1391 296.165 64.1391 296.655C64.1493 296.908 64.1392 297.162 64.1091 297.414Z" fill="#263238"/>
<path d="M57.0722 266.188C57.1201 266.288 57.1577 266.392 57.1845 266.498C57.2593 266.733 57.3492 267.036 57.454 267.409C57.6861 268.202 58.008 269.354 58.3823 270.782C59.1309 273.637 60.1341 277.597 61.1223 281.984C62.1105 286.371 62.904 290.371 63.4355 293.268C63.6976 294.717 63.8997 295.889 64.0344 296.717C64.0943 297.103 64.1392 297.407 64.1767 297.655C64.1886 297.765 64.1886 297.876 64.1767 297.986C64.138 297.88 64.1079 297.772 64.0868 297.662C64.0344 297.421 63.9745 297.117 63.8922 296.731C63.72 295.896 63.4879 294.73 63.2035 293.316C62.6195 290.426 61.796 286.419 60.8078 282.053C59.8197 277.686 58.8614 273.706 58.1577 270.844C57.8058 269.464 57.5214 268.285 57.3192 267.45C57.2294 267.071 57.1545 266.76 57.1021 266.526C57.078 266.415 57.0679 266.301 57.0722 266.188Z" fill="#263238"/>
<path d="M60.6204 288.888C59.7201 286.798 58.2935 284.935 56.4582 283.453C54.6229 281.97 52.4316 280.911 50.0648 280.363C48.8595 280.094 47.3622 280.059 46.6285 280.983C45.8949 281.908 46.4114 283.218 47.0927 284.177C48.5491 286.148 50.6048 287.68 53.002 288.579C55.3991 289.479 58.0311 289.706 60.568 289.233" fill="#455A64"/>
<path d="M51.3822 283.625C51.6357 283.654 51.8861 283.703 52.1309 283.77C52.4272 283.834 52.7196 283.912 53.0068 284.005C53.3362 284.115 53.7554 284.212 54.1372 284.384C54.519 284.556 55.0056 284.722 55.4623 284.956C55.9636 285.191 56.4487 285.453 56.9146 285.743C57.9879 286.399 58.9752 287.167 59.8567 288.033C60.7211 288.91 61.4746 289.875 62.1026 290.909C62.3793 291.356 62.6292 291.817 62.8512 292.289C63.043 292.703 63.2104 293.127 63.3528 293.558C63.5025 293.944 63.5624 294.317 63.6523 294.634C63.724 294.907 63.7789 295.183 63.817 295.462C63.8628 295.689 63.8878 295.92 63.8918 296.151C63.8244 296.151 63.7047 295.144 63.1432 293.592C62.9949 293.173 62.8225 292.761 62.6266 292.358C62.4046 291.886 62.1547 291.425 61.878 290.978C61.243 289.967 60.4899 289.024 59.6321 288.164C58.7622 287.317 57.7987 286.557 56.7574 285.895C56.2633 285.605 55.7991 285.322 55.335 285.108C54.9156 284.888 54.4832 284.69 54.0399 284.515C52.4453 283.908 51.3598 283.68 51.3822 283.625Z" fill="#263238"/>
<path d="M75.1762 81.5029L72.4062 73.5361C76.346 67.6456 77.7518 60.6103 76.3474 53.8132C74.9431 47.0161 70.8301 40.9489 64.8169 36.8041C58.8038 32.6594 51.3254 30.7369 43.8519 31.4146C36.3785 32.0923 29.4504 35.3212 24.4296 40.4666C19.4088 45.6119 16.6585 52.3016 16.7193 59.2205C16.7801 66.1394 19.6476 72.7872 24.7581 77.857C29.8686 82.9268 36.8525 86.0519 44.3369 86.6181C51.8213 87.1842 59.2649 85.1505 65.2044 80.9166L75.1762 81.5029Z" fill="#FAFAFA"/>
<path d="M75.174 81.5029H74.5452L72.6437 81.4132L65.1574 81.0338C65.1459 81.0339 65.1346 81.0317 65.1241 81.0275C65.1135 81.0232 65.1041 81.017 65.0964 81.0092C65.0886 81.0014 65.0827 80.9922 65.079 80.9822C65.0754 80.9722 65.074 80.9616 65.075 80.9511C65.0718 80.9374 65.0718 80.9233 65.075 80.9097L65.1948 81.02C59.9929 84.7638 53.5961 86.8221 46.9957 86.8762C45.3287 86.868 43.6646 86.7458 42.0173 86.5106C34.3629 85.4067 27.4686 81.6176 22.7775 75.9365C20.1649 72.7383 18.3246 69.0625 17.3799 65.1554C16.3534 61.0012 16.3944 56.6835 17.4997 52.5465C17.6419 52.0222 17.7917 51.4911 17.9414 50.9669C18.0911 50.4427 18.3382 49.9323 18.5328 49.4149C18.7225 48.8917 18.9424 48.3783 19.1916 47.8767C19.4461 47.3801 19.7082 46.8835 19.9402 46.3799C20.1978 45.8766 20.493 45.3903 20.8236 44.9245L21.7744 43.4898L22.8674 42.1103L23.4213 41.4205C23.6085 41.1998 23.8256 40.9998 24.0277 40.7859C27.2652 37.3564 31.372 34.7168 35.9833 33.1019C40.3732 31.5608 45.0872 30.9639 49.7656 31.3568C54.1616 31.7595 58.4073 33.0501 62.2003 35.1368C68.9411 38.8254 73.8577 44.7879 75.9077 51.7601C76.3408 53.254 76.6511 54.7758 76.836 56.3126C76.9559 57.7492 76.9834 59.191 76.9184 60.6305C76.6315 65.2182 75.1027 69.6668 72.4715 73.5706V73.5085C73.3549 76.102 74.0286 78.1023 74.4928 79.4681C74.7174 80.1578 74.8821 80.6338 75.0019 80.9856L75.1666 81.496C75.1666 81.496 75.0917 81.3097 74.9644 80.9649L74.4179 79.4405C73.9388 78.0609 73.2276 76.1158 72.3143 73.5568C72.3063 73.5367 72.3063 73.5147 72.3143 73.4947C74.896 69.5997 76.3855 65.1742 76.6488 60.6167C76.7063 59.1906 76.6713 57.7625 76.544 56.3402C76.3571 54.8168 76.0442 53.3087 75.6083 51.8291C74.0025 46.4618 70.672 41.6676 66.0544 38.0765C61.4367 34.4855 55.7479 32.2656 49.7356 31.7086C45.1162 31.3191 40.4612 31.9065 36.1256 33.4261C31.5843 35.0272 27.5402 37.6329 24.3496 41.0136C24.155 41.2274 23.9379 41.4205 23.7507 41.6413L23.2042 42.331L22.1262 43.6623L21.1979 45.0832C20.8686 45.5472 20.5734 46.0312 20.3145 46.5317C20.06 47.0214 19.8055 47.5181 19.5659 48.0078C19.3217 48.5025 19.1068 49.0091 18.9221 49.5253C18.7274 50.0357 18.4954 50.5392 18.3307 51.0566C18.166 51.5739 18.0387 52.0981 17.8965 52.6154C16.811 56.6889 16.7648 60.9386 17.7617 65.0312C19.0589 70.4056 22.0783 75.2971 26.4285 79.0716C30.7788 82.8461 36.2592 85.3296 42.1595 86.2002C43.7919 86.4364 45.4407 86.5632 47.093 86.5796C48.6353 86.5735 50.1747 86.4559 51.6971 86.2278C56.6021 85.4915 61.2323 83.6452 65.1724 80.8545C65.1801 80.847 65.1893 80.841 65.1996 80.8369C65.2099 80.8328 65.221 80.8307 65.2323 80.8307C65.2435 80.8307 65.2546 80.8328 65.2649 80.8369C65.2752 80.841 65.2845 80.847 65.2922 80.8545C65.3031 80.8686 65.309 80.8855 65.309 80.9028C65.309 80.9201 65.3031 80.937 65.2922 80.9511L65.2323 80.8269L72.6287 81.2959L74.5452 81.4201L75.174 81.5029Z" fill="#263238"/>
<path d="M38.3716 59.0441C38.3716 59.5993 38.1929 60.1421 37.8581 60.6038C37.5233 61.0655 37.0474 61.4253 36.4907 61.6378C35.9339 61.8502 35.3213 61.9058 34.7303 61.7975C34.1392 61.6892 33.5963 61.4218 33.1702 61.0292C32.7441 60.6366 32.4539 60.1364 32.3363 59.5918C32.2188 59.0472 32.2791 58.4828 32.5097 57.9698C32.7403 57.4568 33.1308 57.0184 33.6319 56.7099C34.133 56.4014 34.7221 56.2368 35.3247 56.2368C36.1322 56.2386 36.906 56.5349 37.477 57.061C38.048 57.5871 38.3696 58.3001 38.3716 59.0441Z" fill="#263238"/>
<path d="M50.574 59.0441C50.574 59.5993 50.3953 60.1421 50.0605 60.6038C49.7257 61.0655 49.2498 61.4253 48.6931 61.6378C48.1363 61.8502 47.5237 61.9058 46.9327 61.7975C46.3416 61.6892 45.7987 61.4218 45.3726 61.0292C44.9465 60.6366 44.6563 60.1364 44.5387 59.5918C44.4211 59.0472 44.4815 58.4828 44.7121 57.9698C44.9427 57.4568 45.3332 57.0184 45.8343 56.7099C46.3354 56.4014 46.9245 56.2368 47.5271 56.2368C48.3346 56.2386 49.1084 56.5349 49.6794 57.061C50.2504 57.5871 50.572 58.3001 50.574 59.0441Z" fill="#263238"/>
<path d="M62.7464 57.6439C63.0468 58.1247 63.1858 58.6768 63.1459 59.2304C63.106 59.784 62.8889 60.3143 62.5221 60.7543C62.1553 61.1944 61.6553 61.5244 61.085 61.7027C60.5148 61.881 59.9 61.8997 59.3183 61.7563C58.7366 61.6129 58.214 61.314 57.8166 60.8971C57.4192 60.4803 57.1647 59.9643 57.0854 59.4143C57.006 58.8643 57.1053 58.305 57.3707 57.807C57.6361 57.309 58.0557 56.8946 58.5766 56.6161C58.9234 56.4307 59.3066 56.3102 59.7041 56.2615C60.1016 56.2128 60.5057 56.2368 60.8931 56.3323C61.2805 56.4278 61.6436 56.5928 61.9616 56.8179C62.2797 57.0429 62.5464 57.3236 62.7464 57.6439Z" fill="#263238"/>
<path d="M63.9592 183.106L32.427 180.098L19.0715 152.17L8.6955 154.66C8.6955 154.66 16.3614 184.175 24.9407 188.748C33.52 193.321 62.8288 194.142 62.8288 194.142L63.9592 183.106Z" fill="#FF725E"/>
<path d="M80.7223 197.311C85.8531 191.992 85.3326 183.848 79.5597 179.12C73.7869 174.393 64.9478 174.872 59.817 180.191C54.6863 185.51 55.2068 193.654 60.9796 198.382C66.7524 203.109 75.5915 202.63 80.7223 197.311Z" fill="#263238"/>
<path d="M70.2707 201.647C67.0302 201.646 63.8899 200.611 61.3849 198.717C58.8799 196.823 57.1653 194.187 56.5331 191.259C55.9009 188.33 56.3903 185.291 57.9179 182.657C59.4455 180.024 61.9167 177.96 64.9106 176.818C67.9045 175.675 71.2358 175.524 74.3368 176.391C77.4378 177.258 80.1167 179.088 81.9171 181.571C83.7174 184.054 84.5278 187.035 84.2102 190.006C83.8925 192.977 82.4665 195.755 80.1751 197.867C78.8774 199.069 77.3338 200.022 75.6338 200.67C73.9337 201.319 72.1109 201.651 70.2707 201.647ZM70.2707 175.877C67.0389 175.874 63.9059 176.903 61.4055 178.79C58.9051 180.677 57.192 183.304 56.5582 186.224C55.9244 189.144 56.409 192.176 57.9295 194.803C59.4499 197.431 61.9122 199.491 64.8967 200.634C67.8812 201.776 71.2033 201.93 74.297 201.069C77.3907 200.207 80.0646 198.384 81.863 195.91C83.6615 193.436 84.4732 190.464 84.16 187.5C83.8467 184.537 82.4279 181.765 80.1451 179.657C78.8522 178.456 77.3138 177.504 75.6189 176.855C73.9239 176.207 72.1061 175.874 70.2707 175.877Z" fill="#263238"/>
<path d="M29.6006 190.954C35.2331 189.708 38.7029 184.491 37.3507 179.302C35.9984 174.112 30.3362 170.915 24.7037 172.161C19.0713 173.407 15.6015 178.624 16.9537 183.814C18.3059 189.003 23.9682 192.2 29.6006 190.954Z" fill="#263238"/>
<path d="M19.1879 154.428C22.5354 151.343 22.5354 146.343 19.1879 143.258C15.8404 140.174 10.413 140.174 7.06551 143.258C3.71801 146.343 3.71801 151.343 7.06551 154.428C10.413 157.512 15.8404 157.512 19.1879 154.428Z" fill="#263238"/>
<path d="M26.487 144.569L19.4289 150.06L16.8834 147.283L23.9415 141.792C24.3132 141.502 24.7943 141.361 25.279 141.399C25.7637 141.436 26.2124 141.65 26.5262 141.992L26.7001 142.182C26.8567 142.351 26.9754 142.548 27.0494 142.759C27.1235 142.971 27.1514 143.194 27.1316 143.416C27.1118 143.638 27.0446 143.854 26.934 144.052C26.8234 144.25 26.6715 144.425 26.487 144.569Z" fill="#263238"/>
<path d="M17.5224 134.511V142.789C17.5224 142.853 17.4948 142.914 17.4457 142.959C17.3965 143.005 17.3299 143.03 17.2604 143.03H13.8466C13.7772 143.03 13.7105 143.005 13.6614 142.959C13.6122 142.914 13.5846 142.853 13.5846 142.789V134.511C13.5846 134.063 13.7779 133.633 14.1218 133.317C14.4658 133 14.9323 132.822 15.4188 132.822H15.6883C16.1747 132.822 16.6412 133 16.9852 133.317C17.3292 133.633 17.5224 134.063 17.5224 134.511Z" fill="#263238"/>
<path d="M11.1652 134.543L13.1264 142.62C13.1416 142.683 13.1292 142.748 13.092 142.802C13.0548 142.856 12.9957 142.895 12.9279 142.909L9.59652 143.595C9.5287 143.609 9.45764 143.598 9.39896 143.564C9.34028 143.529 9.29879 143.475 9.28362 143.412L7.32239 135.335C7.21619 134.898 7.30292 134.439 7.5635 134.061C7.82408 133.682 8.23716 133.415 8.71187 133.317L8.97487 133.263C9.44959 133.165 9.94704 133.245 10.3578 133.485C10.7686 133.725 11.059 134.105 11.1652 134.543Z" fill="#263238"/>
<path d="M4.32729 136.567L8.81906 143.735C8.8538 143.791 8.86321 143.857 8.84523 143.919C8.82724 143.98 8.78333 144.033 8.72315 144.065L5.76676 145.638C5.70658 145.67 5.63506 145.678 5.56794 145.662C5.50081 145.645 5.44358 145.605 5.40883 145.549L0.917058 138.381C0.673836 137.993 0.607928 137.532 0.733829 137.099C0.85973 136.666 1.16714 136.297 1.58841 136.073L1.82181 135.948C2.24308 135.724 2.74372 135.664 3.21358 135.78C3.68345 135.896 4.08406 136.179 4.32729 136.567Z" fill="#263238"/>
<path d="M201.002 255.455L210.44 251.757L183.207 192.757L173.769 196.456L201.002 255.455Z" fill="#FF725E"/>
<path d="M184.56 198.395C189.552 192.966 188.822 184.835 182.929 180.235C177.036 175.636 168.212 176.308 163.219 181.738C158.227 187.168 158.957 195.298 164.85 199.898C170.743 204.498 179.567 203.825 184.56 198.395Z" fill="#263238"/>
<path d="M173.918 202.998C171.724 202.999 169.561 202.526 167.602 201.616C165.643 200.706 163.943 199.384 162.639 197.759C161.336 196.133 160.464 194.247 160.096 192.255C159.727 190.262 159.872 188.217 160.518 186.285C161.283 184.007 162.72 181.968 164.667 180.397C166.615 178.825 168.997 177.782 171.55 177.383C174.102 176.984 176.725 177.245 179.126 178.137C181.527 179.029 183.613 180.517 185.151 182.436C186.689 184.354 187.62 186.628 187.84 189.005C188.059 191.382 187.56 193.768 186.396 195.899C185.232 198.03 183.449 199.821 181.247 201.074C179.044 202.328 176.507 202.994 173.918 202.998ZM173.918 177.215C171.334 177.217 168.8 177.88 166.6 179.13C164.401 180.38 162.62 182.168 161.457 184.294C160.294 186.421 159.794 188.803 160.013 191.176C160.232 193.549 161.161 195.819 162.697 197.734C164.233 199.65 166.315 201.135 168.712 202.025C171.11 202.915 173.728 203.174 176.276 202.775C178.824 202.375 181.201 201.332 183.144 199.762C185.087 198.191 186.519 196.155 187.281 193.88C188.369 190.619 188.007 187.094 186.277 184.078C184.546 181.062 181.588 178.802 178.051 177.794C176.698 177.408 175.289 177.213 173.873 177.215H173.918Z" fill="#263238"/>
<path d="M202.204 228.591C203.755 223.449 200.488 218.122 194.907 216.693C189.326 215.264 183.544 218.274 181.993 223.416C180.443 228.559 183.71 233.886 189.291 235.315C194.872 236.744 200.653 233.733 202.204 228.591Z" fill="#263238"/>
<path d="M207.913 263.981C212.647 263.981 216.485 260.445 216.485 256.083C216.485 251.721 212.647 248.185 207.913 248.185C203.179 248.185 199.341 251.721 199.341 256.083C199.341 260.445 203.179 263.981 207.913 263.981Z" fill="#263238"/>
<path d="M196.702 264.037L201.502 256.78L204.871 258.672L200.071 265.928C199.818 266.311 199.41 266.585 198.937 266.691C198.465 266.797 197.966 266.725 197.55 266.492L197.32 266.363C197.113 266.248 196.933 266.096 196.79 265.917C196.647 265.738 196.544 265.534 196.487 265.318C196.429 265.102 196.419 264.877 196.456 264.657C196.493 264.438 196.576 264.227 196.702 264.037Z" fill="#263238"/>
<path d="M208.653 270.957L205.809 263.106C205.787 263.045 205.792 262.979 205.823 262.922C205.854 262.865 205.908 262.821 205.974 262.801L209.212 261.805C209.278 261.784 209.35 261.789 209.412 261.818C209.474 261.846 209.522 261.897 209.544 261.957L212.388 269.809C212.462 270.02 212.489 270.243 212.469 270.464C212.45 270.685 212.383 270.9 212.272 271.098C212.162 271.295 212.011 271.47 211.827 271.614C211.643 271.757 211.43 271.866 211.201 271.934L210.945 272.012C210.489 272.147 209.994 272.112 209.566 271.915C209.138 271.718 208.81 271.374 208.653 270.957Z" fill="#263238"/>
<path d="M214.678 269.076L210.042 261.986C210.024 261.959 210.012 261.929 210.007 261.897C210.002 261.866 210.004 261.834 210.012 261.803C210.02 261.773 210.035 261.744 210.055 261.718C210.076 261.693 210.102 261.671 210.131 261.655L213.055 260.031C213.085 260.015 213.117 260.004 213.151 260C213.185 259.995 213.22 259.996 213.253 260.004C213.287 260.012 213.318 260.025 213.346 260.044C213.374 260.063 213.397 260.086 213.415 260.114L218.051 267.203C218.302 267.587 218.377 268.047 218.26 268.482C218.143 268.917 217.843 269.292 217.427 269.523L217.196 269.651C216.779 269.882 216.28 269.952 215.808 269.844C215.335 269.736 214.929 269.46 214.678 269.076Z" fill="#263238"/>
<path d="M220.466 265.167L213.741 259.678C213.689 259.635 213.658 259.576 213.654 259.512C213.649 259.448 213.673 259.385 213.719 259.337L215.978 256.988C216.024 256.94 216.089 256.911 216.158 256.907C216.228 256.903 216.296 256.925 216.348 256.967L223.072 262.456C223.436 262.753 223.657 263.172 223.686 263.619C223.716 264.067 223.551 264.506 223.228 264.842L223.05 265.028C222.726 265.361 222.273 265.563 221.789 265.589C221.304 265.615 220.829 265.463 220.466 265.167Z" fill="#263238"/>
<path d="M66.1158 175.339C66.1158 175.339 67.1265 265.795 122.218 267.561C177.31 269.326 179.623 175.987 179.623 175.339C179.623 175.339 173.117 161.854 122.869 162.378C72.6214 162.902 66.1158 175.339 66.1158 175.339Z" fill="#FF725E"/>
<path d="M97.0487 159.419H143.613C146.652 159.419 149.116 157.149 149.116 154.349V153.611C149.116 150.811 146.652 148.541 143.613 148.541H97.0487C94.0098 148.541 91.5463 150.811 91.5463 153.611V154.349C91.5463 157.149 94.0098 159.419 97.0487 159.419Z" fill="#263238"/>
<path d="M118.325 78.9852H122.345V60.2581H118.325V78.9852Z" fill="#263238"/>
<path d="M181.805 134.737C188.152 133.347 192.075 127.479 190.566 121.631C189.057 115.782 182.689 112.168 176.341 113.558C169.994 114.948 166.071 120.816 167.58 126.664C169.088 132.513 175.457 136.127 181.805 134.737Z" fill="#FF725E"/>
<path d="M62.4369 134.03C68.7996 132.7 72.7877 126.87 71.3444 121.008C69.9012 115.145 63.5732 111.471 57.2105 112.8C50.8478 114.13 46.8598 119.961 48.303 125.823C49.7463 131.685 56.0742 135.36 62.4369 134.03Z" fill="#FF725E"/>
<path d="M117.996 74.9225C117.996 74.9225 69.9636 74.3914 62.3725 112.749C54.7814 151.107 95.387 151.797 107.073 152.521C112.366 152.852 123.7 152.887 133.702 152.721C155.846 152.37 171.493 148.424 176.815 129.497C177.449 127.278 177.848 125.007 178.006 122.716C179.406 101.941 164.186 73.9016 117.996 74.9225Z" fill="#FF725E"/>
<path d="M152.837 133.304L83.0573 134.305C81.3163 134.333 79.5862 134.044 77.9663 133.456C76.3463 132.868 74.8682 131.991 73.6165 130.875C72.3649 129.76 71.3643 128.428 70.672 126.956C69.9797 125.483 69.6093 123.9 69.582 122.296C69.5523 120.691 69.8661 119.097 70.5056 117.604C71.1452 116.112 72.0978 114.75 73.309 113.597C74.5202 112.444 75.9663 111.522 77.5645 110.884C79.1627 110.246 80.8817 109.905 82.6231 109.88L152.403 108.88C154.144 108.85 155.875 109.138 157.495 109.726C159.115 110.314 160.594 111.191 161.846 112.307C163.098 113.423 164.098 114.755 164.79 116.228C165.482 117.7 165.852 119.284 165.878 120.889C165.909 122.493 165.596 124.088 164.956 125.581C164.317 127.074 163.365 128.436 162.153 129.589C160.942 130.743 159.495 131.665 157.897 132.302C156.298 132.939 154.579 133.28 152.837 133.304Z" fill="#263238"/>
<path d="M97.558 120.964C97.3957 121.725 96.9924 122.424 96.3991 122.973C95.8058 123.522 95.0491 123.896 94.2247 124.049C93.4004 124.202 92.5453 124.126 91.7676 123.831C90.99 123.537 90.3247 123.036 89.8558 122.393C89.3869 121.75 89.1356 120.993 89.1335 120.218C89.1314 119.443 89.3787 118.685 89.8441 118.04C90.3095 117.395 90.9722 116.891 91.7482 116.593C92.5243 116.294 93.3789 116.215 94.2041 116.364C94.7523 116.463 95.2739 116.66 95.7391 116.945C96.2044 117.23 96.6041 117.597 96.9156 118.024C97.227 118.451 97.4441 118.931 97.5543 119.435C97.6645 119.94 97.6658 120.459 97.558 120.964Z" fill="white"/>
<path d="M146.286 120.247C146.126 121.008 145.723 121.708 145.131 122.258C144.538 122.808 143.781 123.184 142.957 123.338C142.132 123.491 141.277 123.416 140.498 123.122C139.72 122.828 139.054 122.328 138.585 121.684C138.115 121.041 137.863 120.284 137.861 119.509C137.858 118.734 138.105 117.976 138.571 117.33C139.036 116.684 139.699 116.18 140.476 115.882C141.252 115.583 142.107 115.504 142.933 115.653C144.038 115.853 145.012 116.45 145.641 117.311C146.27 118.172 146.502 119.228 146.286 120.247Z" fill="white"/>
<path d="M139.271 211.262C138.998 214.714 137.62 218.013 135.311 220.743C133.002 223.473 129.867 225.511 126.301 226.6C122.735 227.688 118.9 227.778 115.279 226.857C111.657 225.937 108.414 224.048 105.958 221.429C103.502 218.811 101.944 215.58 101.481 212.145C101.018 208.711 101.671 205.227 103.357 202.134C105.042 199.041 107.686 196.478 110.952 194.77C114.219 193.061 117.962 192.283 121.708 192.535C126.732 192.874 131.404 195.037 134.698 198.548C137.991 202.06 139.636 206.633 139.271 211.262Z" fill="#263238"/>
<path d="M134.129 210.917C133.929 213.433 132.924 215.837 131.241 217.827C129.558 219.816 127.272 221.301 124.673 222.094C122.074 222.887 119.278 222.951 116.639 222.28C114 221.608 111.636 220.231 109.847 218.322C108.058 216.413 106.923 214.058 106.586 211.554C106.25 209.051 106.726 206.512 107.956 204.258C109.186 202.004 111.113 200.137 113.494 198.893C115.876 197.648 118.604 197.082 121.335 197.267C123.148 197.388 124.917 197.838 126.542 198.589C128.166 199.341 129.614 200.381 130.802 201.649C131.99 202.916 132.896 204.387 133.466 205.978C134.037 207.568 134.262 209.246 134.129 210.917Z" fill="white"/>
<path d="M127.458 213.235C127.352 212.538 127.31 211.834 127.331 211.131C127.293 209.813 127.263 207.93 127.263 205.613L127.413 205.868L120.294 202.04H120.69L113.504 205.758C113.309 206.061 113.766 205.351 113.721 205.426V206.406V207.392C113.721 208.041 113.721 208.689 113.683 209.324C113.683 210.593 113.631 211.821 113.608 213.007L113.414 212.69L120.451 216.649H120.136C122.33 215.559 124.142 214.69 125.377 214.097C126.041 213.748 126.735 213.448 127.451 213.2C126.892 213.619 126.29 213.987 125.654 214.297C124.441 214.987 122.659 215.959 120.413 217.152L120.256 217.235L120.099 217.152L112.972 213.324L112.777 213.221V213C112.777 211.814 112.792 210.586 112.822 209.317C112.822 208.682 112.822 208.041 112.822 207.385V206.406V205.454C112.777 205.53 113.234 204.826 113.039 205.123L120.249 201.44L120.458 201.336L120.653 201.446L127.683 205.406L127.84 205.495V205.661C127.757 208.048 127.675 209.965 127.6 211.269C127.619 211.927 127.572 212.585 127.458 213.235Z" fill="#FF725E"/>
<path d="M125.024 64.1952C127.612 61.8112 127.612 57.9461 125.024 55.5622C122.437 53.1782 118.242 53.1782 115.655 55.5622C113.067 57.9461 113.067 61.8112 115.655 64.1951C118.242 66.5791 122.437 66.5791 125.024 64.1952Z" fill="#FF725E"/>
<path d="M109.753 119.157C110.068 119.192 109.91 120.537 110.839 122.378C111.365 123.436 112.13 124.376 113.085 125.138C114.203 126.044 115.595 126.614 117.075 126.772C118.562 126.861 120.044 126.534 121.327 125.834C122.413 125.252 123.352 124.465 124.082 123.523C125.355 121.889 125.467 120.516 125.781 120.537C125.909 120.537 126.036 120.882 126.036 121.53C126.007 122.454 125.751 123.36 125.287 124.179C124.59 125.417 123.559 126.469 122.293 127.234C120.728 128.25 118.821 128.72 116.915 128.56C115.008 128.399 113.226 127.619 111.887 126.358C110.794 125.395 109.989 124.188 109.551 122.854C109.239 121.964 109.157 121.02 109.312 120.095C109.439 119.454 109.633 119.137 109.753 119.157Z" fill="white"/>
<path d="M173.708 137.029C173.633 137.029 174.494 135.788 175.325 133.615C176.359 130.769 177.012 127.818 177.272 124.827C177.572 121.847 177.647 118.85 177.496 115.86C177.444 114.708 177.384 113.791 177.324 113.101C177.274 112.768 177.261 112.43 177.287 112.094C177.383 112.419 177.445 112.752 177.474 113.087C177.579 113.729 177.683 114.66 177.773 115.846C178.008 118.861 177.971 121.888 177.661 124.896C177.398 127.915 176.7 130.889 175.587 133.739C175.235 134.599 174.809 135.431 174.315 136.229C174.138 136.511 173.935 136.779 173.708 137.029Z" fill="#263238"/>
<path d="M62.4625 111.466C62.4201 111.801 62.3424 112.132 62.2304 112.453C62.1331 112.763 62.0283 113.143 61.931 113.598C61.8336 114.053 61.6839 114.55 61.5941 115.122C61.3316 116.452 61.1566 117.795 61.07 119.143C60.9693 120.794 60.9944 122.449 61.1449 124.096C61.3122 125.74 61.6023 127.372 62.0133 128.98C62.357 130.295 62.787 131.589 63.3009 132.856C63.5031 133.401 63.7352 133.877 63.9223 134.305C64.1095 134.732 64.2891 135.091 64.4389 135.381C64.6095 135.678 64.7499 135.99 64.8581 136.312C64.645 136.038 64.4596 135.747 64.3041 135.443C64.0925 135.098 63.9001 134.743 63.7277 134.38C63.518 133.967 63.2635 133.491 63.0464 132.946C62.4906 131.682 62.0303 130.385 61.6689 129.062C61.2308 127.439 60.9255 125.789 60.7556 124.124C60.6031 122.46 60.588 120.788 60.7107 119.123C60.8151 117.762 61.0202 116.409 61.3246 115.074C61.4369 114.501 61.5941 113.998 61.7213 113.549C61.8486 113.101 61.9684 112.722 62.0807 112.411C62.1799 112.087 62.3076 111.771 62.4625 111.466Z" fill="#263238"/>
<path d="M65.8612 175.263L66.1457 175.339L66.9841 175.601L70.1733 176.636L72.4791 177.394C73.325 177.656 74.2608 177.905 75.2565 178.188C77.2553 178.732 79.5087 179.443 82.069 179.995L86.0592 180.94C87.4516 181.264 88.919 181.505 90.4312 181.809C93.4257 182.443 96.7122 182.878 100.163 183.388C107.627 184.332 115.149 184.827 122.682 184.871C130.215 184.831 137.738 184.335 145.201 183.388C148.63 182.878 151.894 182.45 154.933 181.809C156.43 181.512 157.928 181.271 159.305 180.947L163.303 180.002C165.856 179.45 168.109 178.739 170.108 178.194C171.103 177.912 172.039 177.663 172.885 177.401L175.191 176.642L178.38 175.608L179.219 175.346C179.313 175.311 179.411 175.286 179.51 175.27L179.233 175.38L178.41 175.677L175.243 176.774L172.885 177.587C172.047 177.856 171.111 178.112 170.115 178.408C168.116 178.974 165.87 179.698 163.31 180.271L159.312 181.236C157.928 181.567 156.453 181.816 154.94 182.126C151.946 182.774 148.652 183.216 145.208 183.74C137.73 184.707 130.189 185.212 122.637 185.251C115.088 185.207 107.55 184.7 100.074 183.733C96.6373 183.216 93.3359 182.768 90.3414 182.119C88.8441 181.809 87.3468 181.56 85.9694 181.229L81.9717 180.264C79.4114 179.691 77.1655 178.967 75.1667 178.401C74.171 178.105 73.2427 177.85 72.3967 177.581L70.0984 176.787L66.9317 175.691L66.1082 175.394C66.0216 175.358 65.9388 175.314 65.8612 175.263Z" fill="#263238"/>
<g opacity="0.3">
<path d="M66.1158 175.339C66.1158 175.339 72.6214 162.923 122.869 162.378C173.117 161.833 179.623 175.339 179.623 175.339C179.623 175.339 128.911 198.37 66.1158 175.339Z" fill="black"/>
</g>
<path d="M111.909 77.7919C111.852 77.7969 111.794 77.7969 111.737 77.7919L111.236 77.8402C110.786 77.8816 110.128 77.8954 109.282 77.9851C106.895 78.1985 104.526 78.5603 102.192 79.068C90.1202 81.6154 79.4723 88.1346 72.247 97.402C68.7562 101.855 66.1133 106.824 64.4313 112.094C64.1693 112.839 64.027 113.432 63.8998 113.825L63.7575 114.281C63.7441 114.333 63.724 114.384 63.6976 114.432C63.6877 114.38 63.6877 114.326 63.6976 114.274C63.6976 114.15 63.7575 113.998 63.8024 113.812C63.9073 113.411 64.0195 112.811 64.2591 112.053C64.8839 109.91 65.6848 107.814 66.6547 105.783C69.8546 99.0333 74.7261 93.0684 80.8787 88.3661C87.0574 83.6992 94.3361 80.4298 102.132 78.8197C104.48 78.3282 106.865 78.003 109.267 77.8471C110.12 77.7781 110.764 77.785 111.228 77.7643H111.737C111.857 77.7781 111.909 77.785 111.909 77.7919Z" fill="white"/>
<path d="M64.9178 130.89C64.6178 130.463 64.3859 129.998 64.2291 129.511C63.3411 127.206 62.9272 124.768 63.0088 122.323C62.9874 121.816 63.0531 121.308 63.2034 120.82C63.3232 120.82 63.1585 123.123 63.6377 125.91C64.1168 128.697 65.0301 130.849 64.9178 130.89Z" fill="white"/>
<path d="M52.3183 127.324C52.3183 127.324 52.1461 127.214 51.914 126.952C51.5832 126.58 51.2994 126.175 51.0681 125.745C50.2686 124.319 49.9627 122.701 50.1916 121.11C50.4205 119.519 51.1732 118.031 52.3482 116.847C52.6924 116.484 53.0819 116.16 53.5086 115.881C53.6552 115.767 53.8225 115.678 54.0027 115.619C54.0476 115.674 53.3739 116.095 52.5578 116.998C51.4869 118.18 50.8016 119.617 50.5817 121.144C50.3617 122.67 50.616 124.222 51.3151 125.62C51.8392 126.717 52.3707 127.283 52.3183 127.324Z" fill="white"/>
<path d="M120.765 55.6229C120.181 55.5636 119.592 55.5521 119.006 55.5884C118.308 55.6448 117.633 55.8479 117.033 56.182C116.433 56.5161 115.924 56.9723 115.546 57.5158C115.167 58.0592 114.928 58.6753 114.848 59.3168C114.768 59.9584 114.848 60.6084 115.083 61.2169C115.285 61.7215 115.536 62.2086 115.832 62.6723C115.832 62.6723 115.682 62.5895 115.473 62.3688C115.185 62.0495 114.957 61.6881 114.799 61.2996C114.513 60.6555 114.4 59.9575 114.469 59.2646C114.539 58.5718 114.788 57.9045 115.196 57.3192C115.604 56.7338 116.16 56.2478 116.815 55.9021C117.471 55.5564 118.207 55.3612 118.961 55.3332C119.409 55.3045 119.86 55.3441 120.294 55.4504C120.631 55.4987 120.765 55.6022 120.765 55.6229Z" fill="white"/>
<path d="M186.016 118.957C185.934 119.04 184.773 118.012 183.022 117.24C181.27 116.467 179.675 116.24 179.69 116.129C180.911 116.101 182.117 116.373 183.186 116.915C184.312 117.349 185.289 118.055 186.016 118.957Z" fill="white"/>
<path d="M83.3339 239.715C83.2998 239.674 83.2697 239.63 83.2441 239.584L82.997 239.177C82.7724 238.784 82.473 238.259 82.0837 237.59C81.8891 237.245 81.6794 236.859 81.4399 236.445L80.7362 235.066C80.2271 234.066 79.6581 232.927 79.0967 231.617C78.8122 230.975 78.5127 230.299 78.1983 229.603C77.8839 228.906 77.6144 228.147 77.3075 227.382C76.6636 225.857 76.1171 224.181 75.4808 222.443C74.3055 218.925 73.1526 215.028 72.1419 210.889C71.1313 206.751 70.3976 202.757 69.7987 199.122C69.1998 195.487 68.8105 192.224 68.571 189.424C68.4287 188.044 68.3389 186.789 68.264 185.685C68.1892 184.582 68.1218 183.616 68.0993 182.857C68.0769 182.099 68.0544 181.512 68.0319 181.071V180.609C68.0239 180.556 68.0239 180.503 68.0319 180.45C68.0406 180.503 68.0406 180.556 68.0319 180.609L68.0769 181.071C68.0769 181.505 68.1592 182.105 68.2116 182.85C68.264 183.595 68.3389 184.575 68.4437 185.671C68.5485 186.768 68.6458 188.024 68.8105 189.403C69.08 192.162 69.5591 195.445 70.1206 199.06C70.6821 202.674 71.4981 206.647 72.4863 210.786C73.4745 214.925 74.6349 218.815 75.7803 222.326C76.4166 224.064 76.9481 225.733 77.577 227.258C77.8764 228.03 78.1609 228.768 78.4454 229.479L79.3138 231.507C79.8528 232.796 80.4068 233.941 80.9009 234.955L81.5746 236.335C81.7917 236.756 82.0014 237.142 82.1885 237.494L83.027 239.108L83.2366 239.528C83.282 239.584 83.315 239.647 83.3339 239.715Z" fill="white"/>
<path d="M54.0402 183.478C52.2137 183.542 50.3846 183.482 48.5677 183.299C46.7422 183.24 44.9236 183.062 43.1252 182.768C44.9516 182.704 46.7807 182.764 48.5977 182.947C50.4232 183.005 52.2419 183.183 54.0402 183.478Z" fill="white"/>
<path d="M25.877 168.751C24.8152 167.327 23.8622 165.835 23.0247 164.289C22.0756 162.799 21.2401 161.25 20.5243 159.653C21.5828 161.081 22.5333 162.575 23.3691 164.123C24.3231 165.609 25.1611 167.156 25.877 168.751Z" fill="white"/>
<path d="M109.91 261.463C109.615 261.458 109.322 261.426 109.034 261.367C108.242 261.237 107.46 261.061 106.691 260.842C105.549 260.522 104.434 260.128 103.352 259.663C102.035 259.078 100.768 258.4 99.5641 257.635C98.3733 256.851 97.2519 255.982 96.2102 255.034C95.3666 254.256 94.5859 253.421 93.8745 252.537C93.3871 251.948 92.9443 251.328 92.5494 250.682C92.3878 250.455 92.2547 250.212 92.1526 249.958C92.2125 249.923 92.8414 250.923 94.0916 252.386C94.8265 253.236 95.6191 254.042 96.4647 254.8C98.5369 256.655 100.914 258.196 103.509 259.366C104.569 259.838 105.659 260.25 106.773 260.601C108.69 261.194 109.925 261.394 109.91 261.463Z" fill="white"/>
<path d="M121.395 229.554C121.221 229.582 121.046 229.598 120.871 229.603C120.373 229.642 119.873 229.655 119.373 229.644C117.512 229.606 115.665 229.33 113.886 228.823C112.657 228.471 111.46 228.028 110.307 227.499C108.986 226.873 107.732 226.131 106.564 225.285C103.858 223.369 101.725 220.851 100.366 217.968C99.0065 215.084 98.4654 211.929 98.7935 208.799C98.9155 207.441 99.1787 206.097 99.5795 204.785C99.9383 203.647 100.402 202.539 100.964 201.474C101.776 199.929 102.82 198.496 104.064 197.218C104.397 196.869 104.752 196.537 105.127 196.225C105.251 196.111 105.383 196.005 105.524 195.908C105.524 195.908 105.03 196.397 104.176 197.287C102.978 198.585 101.971 200.023 101.182 201.564C100.004 203.834 99.3032 206.289 99.1154 208.799C98.8119 211.873 99.3522 214.968 100.687 217.8C102.021 220.631 104.106 223.108 106.751 225.002C107.885 225.843 109.103 226.582 110.39 227.209C111.517 227.757 112.691 228.219 113.901 228.589C115.653 229.112 117.473 229.421 119.313 229.506C120.668 229.554 121.395 229.513 121.395 229.554Z" fill="white"/>
<path d="M30.7578 175.235C30.7578 175.291 30.1813 175.035 29.2605 174.835C28.0284 174.587 26.7511 174.599 25.5246 174.87C24.2981 175.141 23.1541 175.664 22.1785 176.401C21.4299 176.974 21.0705 177.429 21.0181 177.394C21.2235 176.938 21.5414 176.532 21.9464 176.208C22.9181 175.386 24.1011 174.807 25.3837 174.525C26.6662 174.242 28.0057 174.266 29.2755 174.594C29.8166 174.7 30.3239 174.919 30.7578 175.235Z" fill="white"/>
<path d="M141.308 106.652C141.308 106.748 132.115 106.831 120.781 106.831C109.446 106.831 100.246 106.748 100.246 106.652C100.246 106.555 109.439 106.472 120.781 106.472C132.122 106.472 141.308 106.541 141.308 106.652Z" fill="white"/>
<path d="M106.272 149.783C106.16 149.812 106.044 149.828 105.927 149.831L104.924 149.914C104.49 149.948 103.959 149.976 103.337 149.99C102.716 150.004 102.012 150.031 101.234 149.99C99.6689 149.99 97.8123 149.886 95.7536 149.686C93.5257 149.447 91.3138 149.095 89.1282 148.631C86.9477 148.149 84.7983 147.555 82.69 146.851C80.9723 146.272 79.2881 145.611 77.6442 144.872C76.8956 144.568 76.3192 144.251 75.7727 143.982C75.2262 143.713 74.762 143.472 74.3877 143.292L73.5268 142.809C73.4247 142.757 73.3293 142.695 73.2423 142.623C73.2423 142.623 73.3621 142.623 73.5642 142.747L74.4626 143.168C74.8444 143.361 75.316 143.589 75.87 143.858C76.424 144.127 77.0528 144.403 77.764 144.692C79.1714 145.299 80.8858 145.948 82.8173 146.589C87.0151 147.976 91.37 148.92 95.7985 149.404C97.8348 149.624 99.6839 149.748 101.234 149.783C101.982 149.824 102.731 149.783 103.337 149.783C103.944 149.783 104.483 149.783 104.917 149.783H105.92C106.036 149.765 106.155 149.765 106.272 149.783Z" fill="white"/>
<path d="M166.035 180.864C165.98 180.897 165.919 180.923 165.855 180.94L165.316 181.126L163.235 181.816C162.329 182.119 161.221 182.471 159.911 182.823C158.601 183.175 157.126 183.63 155.457 184.016L152.852 184.651C151.946 184.864 150.988 185.044 150.007 185.258C148.045 185.692 145.919 186.037 143.688 186.43C133.971 187.99 124.096 188.547 114.245 188.093C111.999 187.962 109.82 187.858 107.814 187.644C106.811 187.548 105.838 187.479 104.909 187.361L102.237 187.023C100.53 186.837 99.0028 186.554 97.6627 186.334C96.3227 186.113 95.1623 185.906 94.2265 185.706L92.0705 185.265L91.509 185.14C91.444 185.131 91.381 185.112 91.3218 185.085C91.3891 185.08 91.4567 185.08 91.524 185.085L92.0854 185.175L94.2565 185.554C95.1997 185.727 96.3526 185.927 97.7002 186.113C99.0477 186.299 100.567 186.568 102.274 186.741L104.939 187.051C105.868 187.161 106.841 187.223 107.844 187.313C109.843 187.513 111.999 187.603 114.26 187.727C118.789 187.899 123.767 187.906 128.993 187.624C134.218 187.341 139.152 186.741 143.621 186.065C145.867 185.685 147.978 185.375 149.939 184.933C150.92 184.727 151.878 184.554 152.784 184.347L155.389 183.733C157.059 183.368 158.534 182.94 159.844 182.595C161.154 182.25 162.277 181.905 163.183 181.65L165.286 181.029L165.84 180.878L166.035 180.864Z" fill="white"/>
</svg>
